<svg xmlns="http://www.w3.org/2000/svg" viewBox="0 0 766.3 890"><path d="M75.3 889s89.4-163.6 12.4-318.3C-38 422.7-48.6 121.2 189.4 31.4c215.4-81.2 417.5 12.6 443 84 42.9 70.4 68.7 197.2 66.4 204.3s-22.5 39.5-4.2 62.2 71 101.7 71.6 108.9-5.4 21.3-12.5 28-33.8 10-39.4 15.5-3.5 22.1 2.1 39.4-15 21.6-21.8 25.9 17.8 8.6 5.2 33.2-15.4 37.7-8.3 45.6-4.7 77.5-52.9 77.8c-46.8 10-111.4-4.1-136.5 33.6-.2.5-.3 1.1-.5 1.7 1.8 53.8-4.3 57.9-7.3 68.4s-.2 23.6-2.1 30.1l-416.9-1z" fill="#68767a"/><path d="M367.9 516.7s7.8 138.6 68.5 163.8c66.9 41.3 186.1 73.3 203.4 55 12.6-24 8.9-52.1 8.3-77.8 10.2-27 14.7-38.8 11.4-46.7 8.6-11.6 11.6-15.4 9.3-34.2 7-19.2 1.2-16 3.1-28 6.1-9.6 10.2-9.8 10.4-16.6-5.2-5.9-48.9-4.5-32.2-37.3 11-26.6 37.3-76.8 34.2-85s-34.1-37.5-22.8-63.3-2.1-71.6-13.5-119.2-13.7-24.3-16.6-44.6-61.3-133-202.3-151.4-240.2 20.8-254.2 27C152 58.3 15.1 177 21.3 289.6s32.9 206.3 98.6 233.3c46.7 55.7 35.4 52.3 93.4 52.9s154.5-59.1 154.6-59.1" fill="#4f5c5e"/><path fill="#dbdbdb" d="M548.3 855.1l-277.1-57.3-194.3 13.4V890h471.4z"/><path fill="#f2f2f2" d="M218.2 890l53-92.2 277.1 57.3V890z"/></svg>