<svg xmlns="http://www.w3.org/2000/svg" viewBox="0 0 251.61 252.99"><g data-name="Layer 2"><g data-name="Layer 1"><g data-name="Layer 2"><g data-name="Artwork 2"><path d="M13.82 183.65l18.01-15.37-4.42-14.27-25-2.88L0 119.83l22.74-6.34 3.15-12.41-18.35-15.1 16.03-29.84 18.45 7.4 10.74-10.56-10.27-21.97 26.81-16.6 15.59 14.58 12.4-2.76L99.4 1.51 132.69 0l4.74 20.93 14.76 4.73 10.52-18.97 32.7 14.9-7.54 21.95 10.04 7.6 20.48-9.63 19.4 27.41-15.65 16.92 3.19 11.39 25 2.89 1.28 32.63-21.1 2.24-4.68 14.77 18.76 14.07-13.58 29.64-21.62-6.89-8.69 11.38 9.87 22.99-25.08 16.7-16.21-16.02-15.98 4.3-1.3 22.68-32.05 4.38-5.67-23.08-12.4-3.2-13.29 18.47-31.58-16.24 8.07-18.78-12.31-10.88-21.6 10.97-17.35-26.6z"/><path d="M125.61 52.32a74.52 74.52 0 1 1-74.52 74.52 74.52 74.52 0 0 1 74.52-74.52" fill="#4f5c5e"/><path d="M125.59 89a37.83 37.83 0 1 1-37.83 37.8A37.83 37.83 0 0 1 125.59 89"/></g></g></g></g></svg>