<svg xmlns="http://www.w3.org/2000/svg" viewBox="0 0 334.61 335.77"><defs><style>.cls-1{fill:#222e33}</style></defs><g id="Layer_2" data-name="Layer 2"><g id="Layer_1-2" data-name="Layer 1"><g id="Layer_2-2" data-name="Layer 2"><g id="page2"><g id="Artwork_2" data-name="Artwork 2"><path class="cls-1" d="M18.29 243.92l23.97-20.45-5.87-18.91-33.24-3.81L0 159.23l30.24-8.46 4.22-16.48-24.39-19.99 21.38-39.64 24.52 9.8 14.3-14.04-13.63-29.13 35.69-22.07 20.71 19.34 16.48-3.69 2.85-32.81L176.65 0l6.27 27.77 19.63 6.26 14.02-25.2 43.46 19.73-10.07 29.14 13.36 10.08 27.24-12.82 25.76 36.34-20.83 22.48 4.22 15.12 33.25 3.79 1.65 43.3-28.07 3-6.26 19.62 24.94 18.64-18.1 39.36-28.75-9.12-11.58 15.12 13.09 30.5-33.36 22.21-21.55-21.23-21.25 5.71-1.76 30.1-42.63 5.87-7.51-30.63-16.48-4.22-17.71 24.51-41.97-21.5 10.76-24.92-16.35-14.42-28.74 14.58-23.04-35.25z"/><path d="M167 69.17a99.11 99.11 0 1 1-99.11 99.11A99.11 99.11 0 0 1 167 69.17" fill="#4f5c5e"/><path class="cls-1" d="M167 118a50.35 50.35 0 1 1-50.35 50.35A50.35 50.35 0 0 1 167 118"/></g></g></g></g></g></svg>