<svg xmlns="http://www.w3.org/2000/svg" viewBox="0 0 766.3 890.02"><defs><style>.cls-2{clip-path:url(#clip-path)}.cls-4{fill:#4f5c5e}.cls-5{fill:#222e33}</style><clipPath id="clip-path"><path fill="none" d="M0 0h766.3v890.02H0z"/></clipPath></defs><g id="Layer_2" data-name="Layer 2"><g id="page2"><g class="cls-2" id="Artwork_2" data-name="Artwork 2"><g class="cls-2"><path d="M75.27 889s89.36-163.63 12.45-318.34C-38 422.68-48.63 121.21 189.4 31.42c215.36-81.24 417.51 12.56 443 84 42.93 70.41 68.67 197.24 66.4 204.28s-22.54 39.52-4.15 62.21 71 101.71 71.59 108.88-5.4 21.32-12.45 28-33.77 10-39.43 15.55-3.55 22.08 2.08 39.41-15 21.58-21.79 25.92 17.8 8.58 5.19 33.19-15.37 37.74-8.3 45.63-4.7 77.48-52.91 77.77c-46.85 10-111.44-4.13-136.48 33.59-.17.54-.32 1.09-.47 1.66 1.84 53.8-4.27 57.92-7.26 68.44s-.25 23.58-2.08 30.07z" fill="#68767a"/><path class="cls-4" d="M367.85 516.71s7.83 138.64 68.48 163.84c66.92 41.27 186.13 73.27 203.36 55 12.56-24 8.89-52.11 8.3-77.77 10.21-27 14.68-38.81 11.41-46.66 8.61-11.6 11.6-15.36 9.34-34.22 7-19.18 1.15-16 3.11-28 6.09-9.63 10.23-9.85 10.37-16.6-5.2-5.89-48.87-4.5-32.16-37.33 10.95-26.63 37.27-76.78 34.24-85s-34.06-37.49-22.82-63.26-2.1-71.71-13.48-119.3-13.74-24.3-16.6-44.6-61.32-133-202.32-151.4-240.17 20.78-254.2 27C152 58.31 15.1 177 21.32 289.63s32.91 206.27 98.56 233.3c46.67 55.67 35.43 52.28 93.38 52.88s154.59-59.11 154.59-59.11"/><path class="cls-5" d="M69.96 380.32l23.97-20.45-5.87-18.91-33.24-3.81-3.15-41.52 30.24-8.46 4.22-16.48-24.39-19.99 21.38-39.64 24.52 9.8 14.3-14.04-13.63-29.13L144 155.62l20.71 19.34 16.48-3.69 2.85-32.81 44.28-2.06 6.27 27.77 19.63 6.26 14.02-25.2 43.46 19.73-10.07 29.14 13.36 10.08 27.24-12.82 25.76 36.34-20.83 22.48 4.22 15.12 33.25 3.79 1.65 43.3-28.07 3-6.26 19.62 24.94 18.64-18.1 39.36-28.75-9.12-11.58 15.12 13.09 30.5-33.36 22.21-21.55-21.23-21.25 5.71-1.76 30.1-42.63 5.87-7.51-30.63-16.48-4.22-17.71 24.51-41.97-21.5 10.76-24.92-16.35-14.42L93 415.57l-23.04-35.25z"/><path class="cls-4" d="M218.7 205.57a99.11 99.11 0 1 1-99.11 99.11 99.11 99.11 0 0 1 99.11-99.11"/><path class="cls-5" d="M218.7 254.35a50.35 50.35 0 1 1-50.35 50.35 50.35 50.35 0 0 1 50.35-50.35"/><path d="M384.32 297.33l18.01-15.37-4.42-14.27-25-2.88-2.41-31.3 22.74-6.34 3.15-12.41-18.35-15.1 16.03-29.84 18.45 7.4 10.74-10.56-10.27-21.97 26.81-16.6 15.59 14.58 12.4-2.76 2.11-24.72 33.29-1.51 4.74 20.93 14.76 4.73 10.52-18.97 32.7 14.9-7.54 21.95 10.04 7.6 20.48-9.63 19.4 27.41-15.65 16.92 3.19 11.39 25 2.89 1.28 32.63-21.1 2.24-4.68 14.77 18.76 14.07-13.58 29.64-21.62-6.89-8.69 11.38 9.87 22.99-25.08 16.7-16.21-16.02-15.98 4.3-1.3 22.68-32.05 4.38-5.67-23.08-12.4-3.2-13.29 18.47-31.58-16.24 8.07-18.78-12.31-10.88-21.6 10.97-17.35-26.6z"/><path class="cls-4" d="M496.11 166a74.52 74.52 0 1 1-74.52 74.52A74.52 74.52 0 0 1 496.11 166"/><path d="M496.09 202.65a37.83 37.83 0 1 1-37.83 37.83 37.83 37.83 0 0 1 37.83-37.83"/><path d="M215.33 294.8c22.82-5.31 283.25-65.33 283.25-65.33l4.15 12.44s-273.42 62.17-286.36 65.34-23.86-7.13-1-12.46" fill="#fc4799"/><path fill="#dd1969" d="M342.95 265.77l42.54 3.11 116.2-28-4.15-11.41-154.59 36.3z"/></g></g></g></g></svg>