<svg xmlns="http://www.w3.org/2000/svg" viewBox="0 0 367.64 338.02"><g data-name="Layer 2"><path d="M81.99 294.64c.57-8.84 2.09-17.57 8-24.47 5.25-6.12 12.15-10.33 19.65-13.4a40.76 40.76 0 0 1 20.76-3.06c1.63.2 2-.75 2.12-2.07a95.05 95.05 0 0 1 3.19-16.14c1.75-5.64 4.15-10.92 8.23-15.24 6.49-6.87 14.68-9.08 23.85-8.26 2.07.19 4.12.55 6.17.93 1.14.21 1.64.09 1.65-1.28a11.26 11.26 0 0 1 .74-3.9c.76-2 .08-2.55-1.83-3-11.26-2.7-21.83-1.28-31.55 5.15-6.48 4.29-10.45 10.54-13.34 17.61a69.67 69.67 0 0 0-4.14 14.13c-.67 3.76-1 4-4.7 4.45-4.7.52-9.5.14-14.07 1.79a27.74 27.74 0 0 0-3.9 1.62c-2.31 1.26-3.86.74-5.14-1.54a71.46 71.46 0 0 0-13.76-18c-11.24-10.26-24.44-13.22-39.2-6.51a41.91 41.91 0 0 0-10.3 6 5.23 5.23 0 0 0-1.85 4.66c.14 2.11 1.26 3.13 3.35 3.25 2.31.13 4.19-.92 6-2.11 4.7-3.07 9.56-5.67 15.26-6.51 7.46-1.1 13.81 1.2 19.38 6 6.17 5.3 9.8 12.34 13.13 19.55.82 1.77.13 3.19-1.23 4.45-3.18 2.93-6.43 5.78-8.89 9.42-4.81 7.1-6.81 15-7.58 23.45-.8 8.82 2.69 16.46 5.59 24.33.37 1 .77 2 1.08 3.06.84 2.81-.23 4.25-3.16 4-3.88-.36-7.45-1.82-10.88-3.36a98.82 98.82 0 0 1-26.42-17.19 61.89 61.89 0 0 1-15.69-21.94c-3-7.24-4.63-14.88-3.76-22.68s-1.08-14.88-4-21.85c-3.23-7.85-7.2-15.39-10-23.45C2.43 205.64.5 198.64.16 191.36c-.79-16.88 1.23-33.45 7.35-49.3 4.53-11.75 12.3-21.22 22-29.15a5 5 0 0 0 2.08-4.71 106.85 106.85 0 0 1 .67-23.9c2.78-18.18 11.75-32.5 27.1-42.75a71.79 71.79 0 0 1 13-6.88c3.12-1.26 4.71 0 4.21 3.31-.55 3.69-1.63 7.29-2.13 11-1.67 12.53-.26 24.41 7 35.12a40.63 40.63 0 0 0 6.78 7.64 4.4 4.4 0 0 0 5.57.39c2-1.23 2.09-3.23 1.23-5.09a52.41 52.41 0 0 0-3.4-5.77c-7.43-11.8-10.14-24.51-7-38.21 1.85-8.16 6.28-15.07 11.78-21.17 7.94-8.81 17-16.11 28.63-19.74 9.43-3 18.87-2.7 28.3-.23 8.13 2.13 15.49 6 22.45 10.64 1.08.72 1.76 1.07 3 .05 4.82-4 8.55-4.08 13.75-.53a2 2 0 0 0 2.68-.16c10.29-7.48 21.7-11.51 34.53-11 9.9.36 18.91 3.59 27.32 8.66a81.9 81.9 0 0 1 17.51 14.34c1.36 1.45 3 2.58 4.16 4.28.51.78 1.35.81 2.22.86 3.47.21 6.54 1.22 8.54 4.36a3.49 3.49 0 0 0 2.13 1.44c9.54 2.37 16.13 8.74 21.55 16.44 9.17 13 13.22 28 16 43.45.32 1.8.72 3.59 1 5.4.17 1.1.8 1.46 1.81 1.72 6.12 1.56 9.39 6.79 7.69 12.92-.74 2.69-.16 4.37 1.59 6.4 9.67 11.26 15.23 24.52 18.35 38.89a5.19 5.19 0 0 0 2.81 4 9.51 9.51 0 0 1 5.27 9 9.77 9.77 0 0 1-5.31 9 4 4 0 0 0-2.21 3.54 173 173 0 0 1-9.94 42.18 5.68 5.68 0 0 0 .68 6 9.92 9.92 0 0 1-3.8 14.67 3 3 0 0 0-2 3c.19 6.83.3 13.67-1.78 20.31a2.57 2.57 0 0 0 .82 2.47 9.77 9.77 0 0 1 1 11.44c-2.06 3.89-5.64 5.32-9.83 5.1a3.62 3.62 0 0 0-3.2 1.36 104.73 104.73 0 0 1-19.5 17.01c-9.07 6-18.7 10.5-29.49 12.3a3.39 3.39 0 0 0-3.05 2.15 9.94 9.94 0 0 1-13.55 5.62 4.32 4.32 0 0 0-4.37.36c-13.72 7.84-28.2 10.6-43.75 6.62a62.16 62.16 0 0 1-23.07-11.46c-1.56-1.22-2.59-1.49-4.28-.22a8.79 8.79 0 0 1-10.71-.07c-1.65-1.22-2.9-1.33-4.64-.16a71.33 71.33 0 0 1-31.69 12c-13 1.54-25.58 0-37.52-5.58a42.73 42.73 0 0 1-22.33-24.08 31.09 31.09 0 0 1-2.18-12zm100.46-176.22h.06v-26.5c0-3.24-1.65-4.45-4.83-3.64a19.71 19.71 0 0 1-2.92.62c-9.66.95-18.21-2.15-26.17-7.3-8.52-5.52-15.63-12.57-22.05-20.38a108.55 108.55 0 0 1-11.92-17.18c-1.61-3-2.78-6.07-2.54-9.52.18-2.72 1.59-4.51 4.1-5a9.2 9.2 0 0 1 8 1.73 32 32 0 0 1 7.2 9.18c6 10.31 13.37 19.25 23.91 25.23a48.75 48.75 0 0 0 21.76 6.65c3.64.18 5.49-1.78 5.5-5.4v-35c0-1.83-.39-3.16-2.15-4.08a7.91 7.91 0 0 1-4.35-7.12c-.05-2.25-1.15-3.49-2.8-4.64a67.05 67.05 0 0 0-20.58-9.87c-11.52-3.21-22.73-2.52-33.56 2.78-7.07 3.46-12.83 8.65-18.28 14.16a47.33 47.33 0 0 0-10.71 16.43c-4.5 11.75-3.16 23.16 2.25 34.34 1.79 3.69 4.27 6.94 6.11 10.58 2.21 4.38 1.39 8.12-2.35 11.1-2.83 2.24-7.78 2-10.86-.77a46.5 46.5 0 0 1-13-19.55c-3.65-10.74-3.36-21.63-1.08-32.54.16-.78.66-1.73-.18-2.3s-1.44.18-2.07.51a72.48 72.48 0 0 0-15.58 10.7c-8.84 8.2-13.86 18.33-16.31 29.92-1.91 9.06-1.78 18.21-1 27.36a6.88 6.88 0 0 1-3.07 6.59 67 67 0 0 0-19.21 23c-7 13.76-8.93 28.71-9.59 43.83-.63 14.36 3.2 27.85 9.46 40.69 6 12.39 10.36 25 9.55 39.26-.86 15.41 7.43 27.29 18.19 37.35a86.82 86.82 0 0 0 27.86 17.24c1.36.54 3 1.86 4.05.87.83-.8-.34-2.61-.92-3.87-6.67-14.43-5.86-28.78.67-42.95a36.81 36.81 0 0 1 9.8-12.79c1.28-1.08 3.34-2 2.08-4.44-3-5.77-6.2-11.4-11.2-15.78s-10.54-6.07-17.1-4.73a33.2 33.2 0 0 0-12.22 5.45c-2.56 1.76-5.15 3.14-8.52 2.87-4.16-.33-7-2.6-7.52-6.79-.61-5 2.18-8.14 6-10.69a57.27 57.27 0 0 1 8.85-4.61c7.73-3.43 15.81-4.76 24.14-3 8 1.68 14.79 5.79 20.65 11.54a80.83 80.83 0 0 1 12.17 15.76c.75 1.22 1.53 1.6 2.86 1.07a40.63 40.63 0 0 1 16.12-2.9 2.12 2.12 0 0 0 2.49-2.08 65.88 65.88 0 0 1 4.84-15.7c4.52-10 11.39-17.75 21.81-21.89 10.12-4 20.37-3.45 30.66-.75 3.14.82 3.53.62 3.54-2.55q.05-14.37 0-28.75c0-3-1.18-3.93-4.11-3.08a81.28 81.28 0 0 1-14.15 3c-12.46 1.28-23.24-1.92-31.56-11.75-2.32-2.74-2.43-2.74-4.8-.12a116.16 116.16 0 0 1-26.66 22.42c-8.8 5.22-18.2 8.73-28.47 9.2-10.8.49-20.71-2.66-29.83-8.35a70.59 70.59 0 0 1-13.37-10.38c-1.82-1.86-3.22-4.19-2-7s3.55-4.18 6.72-4.27a18.36 18.36 0 0 1 9.69 2.8 96.94 96.94 0 0 0 8.8 4.72c13.83 6 27.23 4 40.08-2.89a75.12 75.12 0 0 0 22.08-18.12c1.14-1.36 1.68-2.26-.22-3.52a63 63 0 0 0-33-10.91 62 62 0 0 0-15.13 1.32c-5.27 1.12-10.61-1.71-11.09-6.35-.57-5.57.85-9.25 7.05-10.86a35.66 35.66 0 0 1 7.34-1.48c18.65-.77 36.7 1.56 53.48 10.48a33.19 33.19 0 0 1 13.77 13c4.17 7.33 10.59 11.43 18.69 13.41 6.75 1.65 13.41.92 20.07-.17 4.14-.68 6.56-3.88 6.56-8q.02-12.48.02-24.85zm.07 120.49v-14c0-3.87-.68-5.22-4.41-6.44-6.38-2.08-12.91-3.29-19.65-1.79-9.59 2.13-14.62 8.92-17.84 17.51-2.42 6.44-3.35 13.2-4.15 20-.42 3.5-1.72 4.62-4.88 4.11a38.35 38.35 0 0 0-25.26 4.73c-5.65 3.13-11.55 6.41-14.7 12.08-12.08 21.71-2.62 43.57 19 52.81 8.92 3.81 18.43 4.94 28.13 4.49a66.21 66.21 0 0 0 35.36-12.2 3.63 3.63 0 0 0 1.82-3.53 9.18 9.18 0 0 1 4.66-8.8 3.79 3.79 0 0 0 1.87-3.71c-.06-8.41 0-16.83-.05-25.24 0-3-3.42-6.2-6.43-6.25a28.46 28.46 0 0 0-14.29 3.87c-7.77 4.26-14 10.39-19.73 17-2.88 3.33-5 7.24-8.32 10.25-2.07 1.9-4.4 3.07-7.24 2.35s-4.2-2.87-4.83-5.53a15.72 15.72 0 0 1 1.35-11.16c5.9-11.39 14.89-19.72 26-25.79a57.06 57.06 0 0 1 31.3-6.88c1.82.11 2.29-.46 2.26-2.18-.03-5.2.03-10.45.03-15.7zm163.79-62.47l-2 .38-52.06 10.82-33.26 6.9c-.88.18-1.88.22-2.23 1.3a4.66 4.66 0 0 0 2.68 5.48c.69.29 1.36.63 2.06.9q34.12 13.22 68.22 26.42c3.22 1.25 6.44 3.48 10 .81a.38.38 0 0 1 .24-.05c3.91.38 5.1-2.29 6-5.33.28-1 .61-1.9.94-2.84a185.43 185.43 0 0 0 8-36c.18-1.34 0-2.49-1.48-3.08a10.36 10.36 0 0 1-4.7-4.33 2.41 2.41 0 0 0-2.41-1.38zM233.85 332.82a59 59 0 0 0 24.51-7c2-1 3-2.22 2-4.52a5.29 5.29 0 0 1-.08-2.21c.21-4.75 3-7.58 7.07-9.42 1-.47 1.57-.91 1.49-2.19q-1-14.31-1.75-28.64c-.09-1.62-.63-2.48-2.22-2.73a9.44 9.44 0 0 1-4.91-2.32 3.3 3.3 0 0 0-4.47-.35c-4.21 2.53-8.51 4.91-12.76 7.35q-16.13 9.27-32.25 18.54c-4.9 2.81-9.85 5.56-14.74 8.39-1.41.82-3.08 1.6-1.25 3.72a4.39 4.39 0 0 1 1 3c-.42 3.51 1.71 5.15 4.19 6.95 9.94 7.25 20.8 11.4 34.17 11.43zm45.22-211.27c-.08 3.54 3.26 6.19 6.35 4.91 10.53-4.37 21-8.84 31.53-13.22a3.32 3.32 0 0 0 2.23-2.66 11 11 0 0 1 4.7-7.37c1.14-.72 1.09-1.7.9-2.84-.93-5.75-2.09-11.43-3.56-17.08-3-11.38-7.15-22.11-14.3-31.58a34.76 34.76 0 0 0-13-10.56c-1.11-.53-2.66-1.39-3.24.71a9.35 9.35 0 0 1-4.13 5.43 3 3 0 0 0-1.46 2.44c-.63 7.79-1.32 15.57-2 23.36-.72 8.7-1.41 17.4-2.13 26.09q-.94 11.19-1.89 22.37zM228.23 6.13c-2 .11-4 .13-5.84.34a49.37 49.37 0 0 0-25 10.36c-1.65 1.27-1.86 2.32-.24 4 3.59 3.7 7 7.61 10.38 11.47q10.42 11.77 20.79 23.58a4.14 4.14 0 0 0 4.3 1.63 11.28 11.28 0 0 1 8.59 1.68 2.35 2.35 0 0 0 3.14-.19c6.33-4.87 12.79-9.56 19.1-14.45 3.71-2.88 8.46-4.92 9.11-10.52a3.07 3.07 0 0 1 .93-1.45c.87-.94.7-1.71-.14-2.58-8-8.3-16.74-15.69-27.55-20.18a43.9 43.9 0 0 0-17.57-3.69zm36.88 119.51c-.48-1-1-2.18-1.65-3.34l-21.48-38.9a1.75 1.75 0 0 0-2.6-.94 11.51 11.51 0 0 1-8.31.41c-2-.72-2.95-.09-3.88 1.69-4.86 9.28-9.81 18.51-14.78 27.73q-9.58 17.79-19.22 35.55c-.34.63-1.09 1.29-.5 2s1.53.32 2.32.11q15-4 29.91-8 17-4.55 34-9.13c1.55-.34 6.14-5.55 6.19-7.18zm-9.77 64.26c.38-.06.88-.12 1.37-.22 8.71-1.83 17.42-3.7 26.13-5.51q18.08-3.76 36.17-7.45 13-2.67 25.9-5.38c.86-.18 2.1-.09 2.25-1.18s-1.07-1.11-1.78-1.44q-5.86-2.77-11.74-5.5-23.21-10.72-46.41-21.45c-1.3-.6-1.8-.28-2.58.8-2.53 3.49-5.67 6.11-10.35 5.87a3.67 3.67 0 0 0-3.87 2.46c-2.34 5-4.83 9.87-7.29 14.78-3.4 6.77-6.85 13.51-10.24 20.29-1.04 2.09.13 4.01 2.44 3.95zM77.09 118.41a40.41 40.41 0 0 0-14.06 1.82 4.9 4.9 0 0 0-3.29 6.12c.69 2.16 3.23 3.29 6 2.68a61.67 61.67 0 0 1 19.07-1.26c12.79 1.18 24.18 5.81 34.61 13.1 2.35 1.64 2.53 2.5 1 5a48 48 0 0 1-8.29 9.61 84.6 84.6 0 0 1-18.6 13.35c-16.63 8.45-33 8.69-49.21-1.08-2.65-1.6-5.29-3.18-8.43-3.61-1.51-.21-3.22-.47-4 1.19s.43 2.88 1.61 3.85c2.64 2.16 5.28 4.33 8 6.32 14.6 10.52 30.38 13 47.29 6.5 11.3-4.33 20.77-11.51 29.44-19.78 3.49-3.33 6.76-6.88 10.06-10.4 1.48-1.59 2.83-1.52 4.26-.07a22.65 22.65 0 0 1 1.62 1.89c3.34 4.22 7.09 7.91 12.19 10 8.55 3.51 17.22 3 25.94.84 3.82-1 3.8-1 3.24-4.73a6.18 6.18 0 0 1-.09-1.49c.2-2-.66-2.65-2.65-2.33a51 51 0 0 1-14.68.09c-10.76-1.34-19.13-6.38-24.62-15.83a29.27 29.27 0 0 0-11.1-10.86c-14.02-7.98-29.43-10.47-45.31-10.92zm255.36 119.44c.08-2.94-1.8-3.16-3.17-3.7q-32.77-12.84-65.58-25.59c-2.32-.9-4.63-1.85-7-2.72-2.95-1.1-3.74 1.86-5.44 3-1.29.89-.37 2.12.13 3.13 1.58 3.21 3.22 6.38 4.8 9.59 4.22 8.58 8.46 17.15 12.61 25.75a5.8 5.8 0 0 0 3.6 3.49 9.2 9.2 0 0 1 4.46 2.65c1.28 1.52 2.63 1.63 4.41 1.06 6.27-2 12.58-3.83 18.87-5.73q14.81-4.48 29.62-8.95c1.49-.36 2.71-.93 2.69-1.98zm-60 43.26c.58 9.62 1.11 18.25 1.6 26.88a2.7 2.7 0 0 0 1.55 2.58 7.6 7.6 0 0 1 3.74 3.55c1 2.29 2.54 2.37 4.68 1.88a74.77 74.77 0 0 0 26.29-11.63 105.45 105.45 0 0 0 16.39-14.16c1.56-1.65 2-3 .41-4.9a6.59 6.59 0 0 1-1.07-3.8 2.59 2.59 0 0 0-2.05-2.49q-20.4-6.24-40.79-12.51c-1.54-.48-2.32-.12-2.77 1.43-.69 2.39-2 4.66-4.15 5.72-3.82 1.86-4.71 4.64-3.82 7.46zm-26.79-96c1.65.42 2.27-.75 2.83-1.88 5.51-11.1 10.95-22.25 16.55-33.31 1.19-2.34 1.6-4-.91-5.77-1.46-1-2-2.83-2.43-4.54-.37-1.48-1.16-1.75-2.58-1.37q-30.86 8.3-61.74 16.54c-.54.15-1.28.09-1.42.8s.46 1 .94 1.32q19 14.11 38 28.29a4.21 4.21 0 0 0 4.39.67c2.09-.7 4.19-1.3 6.39-.7zm33.88-133.77c.42-1.57-.51-2.75-2.48-3.42a5.27 5.27 0 0 1-2.89-1.88c-1.08-1.67-2.09-1.33-3.45-.29q-11.3 8.65-22.7 17.16a2.72 2.72 0 0 0-1.12 3.44 12.52 12.52 0 0 1-1 10.38 2.88 2.88 0 0 0 .22 3.2c3.71 6.61 7.29 13.28 10.93 19.92q5.95 10.84 11.93 21.66c.63 1.15 1.37 2.09 2.93 1.75s2-1.56 2.06-3c.33-4.73.67-9.46 1.06-14.19.76-9.2 1.57-18.39 2.33-27.59.73-8.84 1.43-17.74 2.18-27.14zm75.08 111.1a60.32 60.32 0 0 0-3.29-12.51c-3.51-9.57-7.86-18.71-15-26.25a3.71 3.71 0 0 0-4.08-1.36 9.65 9.65 0 0 1-9.67-2.55 3.83 3.83 0 0 0-4.85-1c-9.81 4.13-19.67 8.16-29.5 12.25-1 .4-2.17.69-1.95 2.19.2 1.34.47 2.48 2 3.14 3.81 1.65 7.53 3.51 11.3 5.26q16.75 7.79 33.52 15.56 7.93 3.67 15.89 7.3c1.95.86 5.63-.64 5.63-2.03zm-99.57 94c-4.28-2.61-7.94-4.87-11.63-7.08q-12.4-7.39-24.86-14.72c-8.08-4.8-16.13-9.66-24.27-14.36-2.87-1.66-5.25-.1-5.26 3.22v30.47c0 2.11.35 3.69 2.47 4.65a5.31 5.31 0 0 1 2.5 3c.94 2.47 2.72 2.44 4.82 2.17q19.54-2.51 39.09-5c5.45-.66 10.99-1.05 17.17-2.33zm-59.43-43.17a2.31 2.31 0 0 0 1.42 2.41c3.29 1.95 6.57 3.91 9.85 5.87l36 21.42c5.07 3 10.21 5.93 15.22 9.05 2.32 1.44 3.55-.55 5.13-1.29 1.25-.59.52-1.76.09-2.62q-8.64-17.59-17.31-35.16a3.27 3.27 0 0 0-3.08-2 12 12 0 0 1-10.06-6 2.73 2.73 0 0 0-3.52-1.38c-4.11 1-8.26 1.91-12.38 2.92-6.46 1.57-12.91 3.21-19.38 4.78-1.12.23-2.09.57-1.98 2zm-7 76.25h.14c0 4.33-.06 8.66 0 13 0 1.63.62 2.83 2.65 1.65 3.88-2.26 7.82-4.43 11.72-6.66q20.38-11.64 40.74-23.3c3.18-1.82 6.25-3.83 9.46-5.58 2.3-1.25 1.8-3.22 1.46-5s-2-1.12-3.13-1.1a43.34 43.34 0 0 0-4.46.47l-49.5 6.09a4 4 0 0 0-3.55 2.27 7.13 7.13 0 0 1-3.69 3.6c-1.63.66-1.91 1.81-1.88 3.36.04 3.7.04 7.44.04 11.19zm.49-145.45c1.87-3.43 3.58-6.54 5.27-9.67 9.39-17.33 18.71-34.7 28.21-52 1.42-2.58 1.5-4.6 0-7.08-.88-1.46-1.6-2-3.31-1.62-7.1 1.77-14.22 3.46-21.35 5.12a3.22 3.22 0 0 0-2.79 2.74 8.92 8.92 0 0 1-4.38 6.37c-1.45.82-1.74 2-1.75 3.55q-.17 24.83-.41 49.66a4.7 4.7 0 0 0 .49 2.92zm-.06 46.3h-.43c0 1.67.11 3.34 0 5-.28 3.55-.12 6.82 3.87 8.4a2.48 2.48 0 0 1 1 1.08c.78 1.33 1.85 1.37 3.22 1 9.46-2.29 18.92-4.61 28.42-6.73 3.51-.78 6.62-1.63 6.69-6a.4.4 0 0 1 .1-.23c1.81-2.12.4-3.18-1.28-4.41-10.87-8-21.73-15.93-32.48-24.06-2.09-1.58-3.5-2.25-5.13.33a5.47 5.47 0 0 1-2.1 1.73 3.2 3.2 0 0 0-1.89 3.2c.01 6.87-.01 13.77-.01 20.68zm0-140.48c0 4.74.08 9.49 0 14.23-.08 3.53-.31 6.84 3.62 8.9 1.24.65 2.07 1.26 3.5.91 6-1.45 12-2.63 17.94-4.3 3.56-1 7.78-.83 9.41-5.81 1.21-3.72 1.81-3.52-.9-6.57l-27-30.4c-.44-.49-.82-1.12-1.6-1-1.83.27-5 4.11-5 6.06q-.01 8.98 0 17.96zm92 210.24c1.29.53 1.8.79 2.34 1l16.71 5.11c8.44 2.57 16.88 5.12 25.31 7.72a3.47 3.47 0 0 0 3.84-.84 9.11 9.11 0 0 1 6.8-2.65c1.92.08 2.72-.85 2.89-2.62.41-4.22 1-8.41 1.11-12.67.09-3.47-.13-6.48-4-7.76a1.06 1.06 0 0 1-.59-.45c-1.44-2.89-3.62-2.09-6-1.38-12.73 3.87-25.49 7.67-38.23 11.5zM171.36 84.85c4.68 0 4.68 0 4.6-4.61a4.27 4.27 0 0 1 0-.75c.36-2.24-.67-3-2.85-3.27a57.43 57.43 0 0 1-31.49-15.48c-5.78-5.39-10.21-11.81-14.11-18.64-1.66-2.89-3.4-5.75-6.23-7.7-1.4-1-3-1.45-4.42-.4s-.68 2.46-.29 3.7c1.53 4.83 4.41 8.89 7.28 13 6.82 9.75 14.66 18.52 24.36 25.47 6.89 4.94 14.32 8.73 23.15 8.68zm1.26 176.09a46.76 46.76 0 0 0-10.11 1.84c-15.77 4.55-27.6 14.21-35.79 28.38a11.8 11.8 0 0 0-1.34 7.48c.17 1.43.64 2.89 2.18 3.37s2.52-.54 3.48-1.49a15.48 15.48 0 0 0 1.84-2 96.26 96.26 0 0 1 19.93-21.17c5.34-4.1 11.19-7.24 17.87-8.42 2.89-.51 5-.57 5.49-4.66s-.11-3.36-3.55-3.33zm103.39 2.38c0-4.2-3.6-8.19-7.46-8.19-4.84 0-8.71 3.59-8.68 8.07a8 8 0 0 0 7.92 8.2 7.8 7.8 0 0 0 8.27-8.08zm-49.39-193.2a8 8 0 1 0 7.66-7.67 8 8 0 0 0-7.66 7.67zm9.43 127.82a7.6 7.6 0 0 0 7.73 7.94 7.86 7.86 0 0 0 8.17-7.64c.1-3.94-3.86-8.17-7.75-8.26a8.11 8.11 0 0 0-8.19 7.96zm45.49-62.06a7.71 7.71 0 1 0-15.41-.21c0 4.65 3.23 8 7.73 8a7.65 7.65 0 0 0 7.64-7.79zm48.2-17.48a6.29 6.29 0 0 0 6.3-6.29 6.5 6.5 0 0 0-6.49-6.49 6.71 6.71 0 0 0-6.33 6.16 6.22 6.22 0 0 0 6.47 6.62zm-52.77 201.47a6.08 6.08 0 0 0-6.4-6.43 6.48 6.48 0 0 0-6.36 6.33 6.29 6.29 0 0 0 6.51 6.16 6.14 6.14 0 0 0 6.25-6.06zm-97.46-162.35c-.06 3.8 2.2 6.26 5.84 6.36a6.24 6.24 0 0 0 6.54-5.87 6.59 6.59 0 0 0-6.5-6.55c-3.35-.05-5.83 2.51-5.88 6.06zm163 123.24a6.2 6.2 0 0 0-6.28-6.32 5.81 5.81 0 0 0-6.1 5.83c0 3.57 2.55 6.48 5.78 6.56a6.38 6.38 0 0 0 6.55-6.08zm-.06-35.34a5.91 5.91 0 0 0 6.15-6.12 6.21 6.21 0 0 0-6.14-6.23 6.64 6.64 0 0 0-6.2 6.55 5.93 5.93 0 0 0 6.13 5.79zm-156.58-28a6.18 6.18 0 0 0 6.14-5.93c0-3.07-2.94-6.3-5.86-6.37a6.34 6.34 0 0 0-6.49 6.24 5.93 5.93 0 0 0 6.15 6.02zm171.87-38.45a6.08 6.08 0 0 0 6.13-5.92 6.13 6.13 0 1 0-12.25-.16c-.15 3.49 2.38 6.01 6.06 6.04zM185.85 25.42a5.79 5.79 0 0 0 6.07-5.78 6.21 6.21 0 0 0-6-6.1 6.48 6.48 0 0 0-6.3 6.1 6 6 0 0 0 6.23 5.78zm-.05 285c-3.71 0-5.62 2.15-5.84 5.9a5.76 5.76 0 0 0 5.84 6c3 0 6.14-3 6.11-5.78a5.84 5.84 0 0 0-6.11-6.15zm95.42-277.45a6.19 6.19 0 0 0-6.11 6 6 6 0 0 0 5.88 5.89c3.84 0 6.07-2.2 6-6a5.75 5.75 0 0 0-5.77-5.89zm-95.6 239.39a5.73 5.73 0 0 0 5.93-5.74 6.07 6.07 0 0 0-6-6.12 6 6 0 0 0-5.94 5.86 5.84 5.84 0 0 0 6.01 6zm.19-198.48c-3.62 0-6.08 2.23-6.17 5.7s2.44 5.81 6.29 5.84c3.23 0 5.63-2.55 5.6-6a5.47 5.47 0 0 0-5.77-5.54z" data-name="Layer 1"/></g></svg>