<svg xmlns="http://www.w3.org/2000/svg" viewBox="0 0 384 276"><defs><style>.cls-2{fill:#f2f2f2}</style></defs><g id="Layer_2" data-name="Layer 2"><g id="page3"><rect width="384" height="276" rx="12" ry="12" fill="#4f5c5e"/><path class="cls-2" d="M41.15 48.48H36V34h16.09v4.18H41.15v10.3zm50.17 0h5.15V34H80.38v4.18h10.94v10.3zM41.15 59.52H36V74h16.09v-4.18H41.15v-10.3zm50.17 0h5.15V74H80.38v-4.18h10.94v-10.3zm60.83 39.96H147V85h16.09v4.18h-10.94v10.3zm50.17 0h5.15V85h-16.09v4.18h10.94v10.3zm-50.17 11.04H147V125h16.09v-4.18h-10.94v-10.3zm50.17 0h5.15V125h-16.09v-4.18h10.94v-10.3zM60.15 157.48H55V143h16.09v4.18H60.15v10.3zm50.17 0h5.15V143H99.38v4.18h10.94v10.3zm-50.17 11.04H55V183h16.09v-4.18H60.15v-10.3zm50.17 0h5.15V183H99.38v-4.18h10.94v-10.3zm104.83 24.96H210V179h16.09v4.18h-10.94v10.3zm50.17 0h5.15V179h-16.09v4.18h10.94v10.3zm-50.17 11.04H210V219h16.09v-4.18h-10.94v-10.3zm50.17 0h5.15V219h-16.09v-4.18h10.94v-10.3z"/><path fill="#fc4799" d="M158 95h38v21h-38z"/><path class="cls-2" d="M66 153h38v21H66zM47 44h38v21H47zm175 145h38v21h-38z"/></g></g></svg>