<svg xmlns="http://www.w3.org/2000/svg" viewBox="0 0 384 276"><defs><style>.cls-3{fill:#fff}</style></defs><g id="Layer_2" data-name="Layer 2"><g id="page3"><rect width="384" height="276" rx="12" ry="12" fill="#4f5c5e"/><path fill="none" stroke="#fff" stroke-miterlimit="10" stroke-width="2" d="M0 44.78h37.75L43.55 56l5.08-11L384 44.78"/><path class="cls-3" d="M32.05 31.29h-1.81v-7.05h-2.33v-1.51h6.47v1.51h-2.33zm8.89 0l-.62-2H37.2l-.62 2h-2l3-8.6h2.22l3 8.6zm-1.05-3.56l-1-3.13q-.11-.36-.16-.57-.19.75-1.11 3.71zm7.34-1.25h3.4v4.44a9.58 9.58 0 0 1-1.56.38 10.13 10.13 0 0 1-1.49.11 3.77 3.77 0 0 1-3-1.14 4.74 4.74 0 0 1-1-3.27 4.32 4.32 0 0 1 1.19-3.23 4.51 4.51 0 0 1 3.29-1.16 6.37 6.37 0 0 1 2.54.53l-.6 1.44a4.31 4.31 0 0 0-2-.47 2.41 2.41 0 0 0-1.89.79 3.07 3.07 0 0 0-.64 2.1 3.42 3.42 0 0 0 .53 2.16 2 2 0 0 0 1.66.74 5.88 5.88 0 0 0 1.15-.12V28h-1.58zm8.69 0h3.4v4.44a9.58 9.58 0 0 1-1.56.38 10.13 10.13 0 0 1-1.49.11 3.77 3.77 0 0 1-3-1.14 4.74 4.74 0 0 1-1-3.27 4.32 4.32 0 0 1 1.19-3.23 4.51 4.51 0 0 1 3.29-1.16 6.37 6.37 0 0 1 2.54.53l-.6 1.45a4.31 4.31 0 0 0-2-.47 2.41 2.41 0 0 0-1.89.79 3.07 3.07 0 0 0-.64 2.09 3.42 3.42 0 0 0 .57 2.13 2 2 0 0 0 1.66.74 5.88 5.88 0 0 0 1.15-.12V28h-1.62zm10.37 4.81h-4.93v-8.56h4.93v1.49h-3.12v1.88h2.9v1.49h-2.9v2.21h3.12zm8.9-4.36A4.22 4.22 0 0 1 74 30.17a4.91 4.91 0 0 1-3.48 1.13h-2.44v-8.57h2.69a4.53 4.53 0 0 1 3.23 1.1 4.07 4.07 0 0 1 1.19 3.1zM73.3 27q0-2.76-2.44-2.76h-1v5.58h.78q2.66-.03 2.66-2.82zm8.57 4.29h-1.79v-8.56H85v1.49h-3.13v2.21h2.91v1.48h-2.91zm10.04 0l-.62-2h-3.13l-.62 2h-2l3-8.6h2.22l3 8.6zm-1.05-3.56l-1-3.13q-.11-.36-.16-.57-.19.75-1.11 3.71zm7.72-3.61a1.85 1.85 0 0 0-1.59.77 3.58 3.58 0 0 0-.56 2.11q0 2.87 2.15 2.87a6.8 6.8 0 0 0 2.19-.45V31a6.07 6.07 0 0 1-2.36.44 3.59 3.59 0 0 1-2.86-1.13 4.8 4.8 0 0 1-1-3.25 5.32 5.32 0 0 1 .45-2.38 3.51 3.51 0 0 1 1.4-1.54 4.13 4.13 0 0 1 2.14-.54 5.76 5.76 0 0 1 2.51.6l-.59 1.48a9.7 9.7 0 0 0-1-.4 2.88 2.88 0 0 0-.88-.16zm8.94 7.17h-4.93v-8.56h4.93v1.49h-3.12v1.88h2.9v1.49h-2.9v2.21h3.12zm6.85-2.37a2.21 2.21 0 0 1-.83 1.83 3.63 3.63 0 0 1-2.32.67 5.46 5.46 0 0 1-2.43-.52v-1.69a10 10 0 0 0 1.47.54 4.34 4.34 0 0 0 1.1.16 1.56 1.56 0 0 0 .92-.23.78.78 0 0 0 .32-.68.75.75 0 0 0-.14-.45 1.57 1.57 0 0 0-.41-.38 10.62 10.62 0 0 0-1.11-.58 5.26 5.26 0 0 1-1.18-.71 2.66 2.66 0 0 1-.63-.79 2.26 2.26 0 0 1-.23-1.05 2.21 2.21 0 0 1 .77-1.79 3.2 3.2 0 0 1 2.13-.65 5 5 0 0 1 1.27.16 8.76 8.76 0 0 1 1.27.45l-.59 1.41a8.57 8.57 0 0 0-1.13-.39 3.65 3.65 0 0 0-.88-.11 1.17 1.17 0 0 0-.79.24.79.79 0 0 0-.28.63.78.78 0 0 0 .11.42 1.22 1.22 0 0 0 .35.35 11 11 0 0 0 1.15.6 4.58 4.58 0 0 1 1.65 1.15 2.25 2.25 0 0 1 .44 1.41z"/><circle class="cls-3" cx="74.5" cy="106.5" r="20.5"/><circle cx="149.5" cy="106.5" r="20.5" fill="#fc4799"/><circle class="cls-3" cx="149.5" cy="106.5" r="14.5"/><circle class="cls-3" cx="226.5" cy="106.5" r="20.5"/><circle class="cls-3" cx="304.5" cy="106.5" r="20.5"/><circle class="cls-3" cx="74.5" cy="200.5" r="20.5"/><circle class="cls-3" cx="149.5" cy="200.5" r="20.5"/><circle class="cls-3" cx="226.5" cy="200.5" r="20.5"/><circle class="cls-3" cx="304.5" cy="200.5" r="20.5"/><path d="M45 140h59v4H45zm75 0h59v4h-59zm76 0h59v4h-59zm79 0h59v4h-59zM45 234h59v4H45zm75 0h59v4h-59zm76 0h59v4h-59zm79 0h59v4h-59z" fill="#222e33"/></g></g></svg>