<svg xmlns="http://www.w3.org/2000/svg" viewBox="0 0 581.44 289"><defs><style>.cls-1{fill:#68767a}.cls-2{fill:#fff}</style></defs><g id="Layer_2" data-name="Layer 2"><g id="page3"><path class="cls-1" d="M47.59 142l20.85 21.15L47.88 184H4v-42h43.59z"/><circle class="cls-2" cx="45.97" cy="163" r="7.78"/><path class="cls-1" d="M42 86h84.59l20.85 21.15L126.88 128H42V86z"/><circle class="cls-2" cx="124.97" cy="107" r="7.78"/><path class="cls-1" d="M128 142h84.59l20.85 21.15L212.88 184H128v-42z"/><circle class="cls-2" cx="210.97" cy="163" r="7.78"/><path class="cls-1" d="M223 86h84.59l20.85 21.15L307.88 128H223V86z"/><circle class="cls-2" cx="305.97" cy="107" r="7.78"/><path fill="#fc4799" d="M298 142h84.59l20.85 21.15L382.88 184H298v-42z"/><circle class="cls-2" cx="380.97" cy="163" r="7.78"/><path class="cls-1" d="M390 86h84.59l20.85 21.15L474.88 128H390V86z"/><circle class="cls-2" cx="472.97" cy="107" r="7.78"/><path class="cls-1" d="M476 142h84.59l20.85 21.15L560.88 184H476v-42z"/><circle class="cls-2" cx="558.97" cy="163" r="7.78"/><path fill="none" stroke="#10cfbd" stroke-miterlimit="10" stroke-width="4" d="M2 0v289"/></g></g></svg>