<svg xmlns="http://www.w3.org/2000/svg" viewBox="0 0 384 276"><defs><style>.cls-4{fill:#fff}.cls-5{fill:#fc4799}</style></defs><g id="Layer_2" data-name="Layer 2"><g id="page3"><rect width="384" height="276" rx="12" ry="12" fill="#4f5c5e"/><path fill="none" stroke="#fff" stroke-miterlimit="10" stroke-width="2" d="M0 44.78h37.75L43.55 56l5.08-11L384 44.78"/><path d="M45 140h59v4H45zm75 0h59v4h-59zm76 0h59v4h-59zm79 0h59v4h-59zM45 234h59v4H45zm75 0h59v4h-59zm76 0h59v4h-59zm79 0h59v4h-59z" fill="#222e33"/><path class="cls-4" d="M28.13 29.64h-1.52v-5.88h-1.94V22.5h5.39v1.26h-1.93zm7.4 0l-.53-1.7h-2.6l-.52 1.7h-1.62l2.52-7.17h1.85l2.53 7.17zm-.88-3l-.81-2.61q-.09-.3-.13-.48-.16.63-.92 3.09zm6.12-1.01h2.83v3.7a8.06 8.06 0 0 1-1.3.32 8.53 8.53 0 0 1-1.24.09 3.14 3.14 0 0 1-2.47-.95 4 4 0 0 1-.85-2.73 3.6 3.6 0 0 1 1-2.7 3.75 3.75 0 0 1 2.74-1 5.3 5.3 0 0 1 2.12.44l-.5 1.21a3.59 3.59 0 0 0-1.63-.39 2 2 0 0 0-1.57.66 2.56 2.56 0 0 0-.59 1.77 2.85 2.85 0 0 0 .48 1.77 1.65 1.65 0 0 0 1.38.61 4.87 4.87 0 0 0 1-.1v-1.44h-1.4zm7.23 0h2.83v3.7a8.06 8.06 0 0 1-1.3.32 8.53 8.53 0 0 1-1.24.09 3.14 3.14 0 0 1-2.47-.95 4 4 0 0 1-.82-2.73 3.6 3.6 0 0 1 1-2.7 3.75 3.75 0 0 1 2.74-1 5.3 5.3 0 0 1 2.12.44l-.5 1.21a3.59 3.59 0 0 0-1.63-.39 2 2 0 0 0-1.57.66 2.56 2.56 0 0 0-.59 1.77 2.85 2.85 0 0 0 .43 1.82 1.65 1.65 0 0 0 1.38.61 4.87 4.87 0 0 0 1-.1v-1.49H48zm8.66 4.01h-4.12V22.5h4.11v1.24h-2.6v1.57h2.42v1.24h-2.41v1.84h2.6zM64.07 26a3.52 3.52 0 0 1-1 2.7 4.09 4.09 0 0 1-2.9.94h-2V22.5h2.24a3.77 3.77 0 0 1 2.71.92 3.39 3.39 0 0 1 .95 2.58zm-1.57 0q0-2.3-2-2.3h-.81v4.65h.65q2.16.04 2.16-2.35zm12.12.06a3.87 3.87 0 0 1-.88 2.72 3.81 3.81 0 0 1-5 0 3.89 3.89 0 0 1-.88-2.73 3.83 3.83 0 0 1 .88-2.72 3.29 3.29 0 0 1 2.53-.94 3.25 3.25 0 0 1 2.52.95 3.88 3.88 0 0 1 .83 2.72zm-5.21 0a3 3 0 0 0 .45 1.8 1.59 1.59 0 0 0 1.36.61q1.81 0 1.81-2.41t-1.8-2.41a1.6 1.6 0 0 0-1.36.61 3 3 0 0 0-.46 1.8zm6.69-3.56h2.22a4.29 4.29 0 0 1 2.2.43 1.51 1.51 0 0 1 .69 1.38 1.73 1.73 0 0 1-.3 1 1.2 1.2 0 0 1-.8.49 1.57 1.57 0 0 1 1 .57 1.84 1.84 0 0 1 .3 1.1 1.82 1.82 0 0 1-.71 1.52 3.05 3.05 0 0 1-1.92.55H76.1zm1.51 2.83h.88a1.61 1.61 0 0 0 .89-.19.71.71 0 0 0 .28-.63.63.63 0 0 0-.3-.59 1.94 1.94 0 0 0-.95-.18h-.8zm0 1.2v1.86h1a1.47 1.47 0 0 0 .92-.24.88.88 0 0 0 .3-.73q0-.89-1.27-.89zm4.47 5.21a3.32 3.32 0 0 1-.89-.11v-1.26a2.94 2.94 0 0 0 .71.1.8.8 0 0 0 .71-.31 1.72 1.72 0 0 0 .21-1V22.5h1.51v6.68a2.82 2.82 0 0 1-.57 1.9 2.12 2.12 0 0 1-1.68.66zm8.16-2.1h-4.11V22.5h4.11v1.24h-2.6v1.57h2.42v1.24h-2.41v1.84h2.6zm4.53-5.98a1.54 1.54 0 0 0-1.32.64 3 3 0 0 0-.45 1.79q0 2.39 1.79 2.39a5.66 5.66 0 0 0 1.82-.38v1.27a5.06 5.06 0 0 1-2 .37 3 3 0 0 1-2.38-.95 4 4 0 0 1-.83-2.71 4.43 4.43 0 0 1 .41-2A2.93 2.93 0 0 1 93 22.85a3.46 3.46 0 0 1 1.78-.45 4.81 4.81 0 0 1 2.09.5l-.49 1.23a8.19 8.19 0 0 0-.81-.33 2.4 2.4 0 0 0-.8-.14zm6.09 5.98h-1.51v-5.88h-1.94V22.5h5.39v1.26h-1.94zm7.25-1.98a1.85 1.85 0 0 1-.7 1.52 3 3 0 0 1-1.94.56 4.55 4.55 0 0 1-2-.43V27.9a8.34 8.34 0 0 0 1.22.45 3.62 3.62 0 0 0 .92.13 1.3 1.3 0 0 0 .76-.19.65.65 0 0 0 .27-.57.63.63 0 0 0-.12-.37 1.32 1.32 0 0 0-.34-.31 9 9 0 0 0-.93-.48 4.41 4.41 0 0 1-1-.59 2.21 2.21 0 0 1-.52-.66 1.88 1.88 0 0 1-.2-.88 1.84 1.84 0 0 1 .64-1.49 2.67 2.67 0 0 1 1.83-.54 4.19 4.19 0 0 1 1.06.13 7.33 7.33 0 0 1 1.06.37l-.49 1.18a7.1 7.1 0 0 0-.94-.33 3.06 3.06 0 0 0-.73-.09 1 1 0 0 0-.66.2.66.66 0 0 0-.23.52.64.64 0 0 0 .09.35 1 1 0 0 0 .3.29 9.48 9.48 0 0 0 1 .5 3.83 3.83 0 0 1 1.37 1 1.87 1.87 0 0 1 .28 1.14zM51.83 93.19l23.91 9.9 17.31-9.9v23.92L75.74 127l-23.91-9.89V93.19z"/><path class="cls-4" d="M51 89.89l23.91 9.9 18.14-10.72L72.44 80 51 89.89zm77.82 3.3l23.92 9.9 17.31-9.9v23.92L152.74 127l-23.92-9.89V93.19z"/><path class="cls-4" d="M128 89.89l23.91 9.9 18.14-10.72L149.44 80 128 89.89z"/><path class="cls-5" d="M204.82 91.19l23.92 9.9 17.31-9.9v23.92L228.74 125l-23.92-9.89V91.19z"/><path class="cls-5" d="M204 87.89l23.91 9.9 18.14-10.72L225.44 78 204 87.89z"/><path class="cls-4" d="M283.82 91.19l23.92 9.9 17.31-9.9v23.92L307.74 125l-23.92-9.89V91.19z"/><path class="cls-4" d="M283 87.89l23.91 9.9 18.14-10.72L304.44 78 283 87.89zm.82 99.3l23.92 9.9 17.31-9.9v23.91l-17.31 9.9-23.92-9.9v-23.91z"/><path class="cls-4" d="M283 183.9l23.91 9.89 18.14-10.72-20.61-9.07-21.44 9.9zm-77.18 3.29l23.92 9.9 17.31-9.9v23.91l-17.31 9.9-23.92-9.9v-23.91z"/><path class="cls-4" d="M205 183.9l23.91 9.89 18.14-10.72-20.61-9.07-21.44 9.9zm-75.18 3.29l23.92 9.9 17.31-9.9v23.91l-17.31 9.9-23.92-9.9v-23.91z"/><path class="cls-4" d="M129 183.9l23.91 9.89 18.14-10.72-20.61-9.07-21.44 9.9zm-75.17 3.29l23.91 9.9 17.31-9.9v23.91L77.74 221l-23.91-9.9v-23.91z"/><path class="cls-4" d="M53 183.9l23.91 9.89 18.14-10.72L74.44 174 53 183.9z"/></g></g></svg>