<svg xmlns="http://www.w3.org/2000/svg" viewBox="0 0 384.42 276"><g data-name="Layer 2"><rect x=".42" width="384" height="276" rx="12" ry="12" fill="#4f5c5e"/><path fill="#f2f2f2" d="M.42 61.99h384v155.28H0L.42 61.99z"/><path fill="#fc4799" d="M188.42 125v30l25-15-25-15z"/><path d="M60.22 242.29a1.42 1.42 0 0 0 1.57 1.64c1 0 1.64-.48 1.64-1.21s-.54-.9-1.64-1.16c-2.06-.52-3.19-1.13-3.19-2.63s1-2.69 3.43-2.69a3.24 3.24 0 0 1 2.61 1 2.5 2.5 0 0 1 .49 1.61h-1.78a1.29 1.29 0 0 0-1.4-1.32c-.86 0-1.43.47-1.43 1.18s.64.95 1.88 1.26c1.5.36 3 .77 3 2.46s-1.29 2.82-3.69 2.82c-3.32 0-3.35-2.13-3.36-3zm8.21-3.29v3.61c0 .53 0 1.33.95 1.33 1.14 0 1.14-.85 1.14-1.88V239h1.82v6.06H70.7l-.06-.8a2 2 0 0 1-1.79 1 2.31 2.31 0 0 1-1.82-.82 2.79 2.79 0 0 1-.4-1.63V239zm5.57-2.58h1.78v3.32a2 2 0 0 1 1.71-.82c1.47 0 2.64 1.16 2.64 3.2 0 2.27-1.32 3.06-2.53 3.06a2 2 0 0 1-1.82-1c0 .19 0 .48-.06.85H74zm3 3.69c-1.31 0-1.31 1.49-1.31 1.87 0 1.38.59 2 1.39 2 1.22 0 1.22-1.52 1.22-1.84-.02-.43-.04-2.03-1.3-2.03zm7.92 4.89a5.5 5.5 0 0 1-1.38.19c-1.79 0-1.79-1.13-1.79-1.63v-3.32h-1.16V239h1.16v-1.19l1.76-.65V239H85v1.17h-1.49V243c0 .55 0 .9.8.9a4.57 4.57 0 0 0 .6 0zm1.08-8.59h1.89V238H86zm0 2.59h1.8v6.07H86zm6.92 6a5.5 5.5 0 0 1-1.38.19c-1.79 0-1.79-1.13-1.79-1.63v-3.32h-1.16V239h1.16v-1.19l1.76-.65V239H93v1.17h-1.48V243c0 .55 0 .9.8.9a4.57 4.57 0 0 0 .6 0zm1.08-8.61h1.8v8.67H94zm4.79 6.1c0 .4 0 1.62 1.24 1.62a1 1 0 0 0 1.05-.84h1.62a2 2 0 0 1-.58 1.32 2.94 2.94 0 0 1-2.12.71 3 3 0 0 1-2.13-.75 3.93 3.93 0 0 1 .48-5.23 3 3 0 0 1 1.7-.5 2.6 2.6 0 0 1 2.45 1.46 4.49 4.49 0 0 1 .36 2.22zm2.25-1.12c0-.28 0-1.35-1.06-1.35-.78 0-1.1.65-1.14 1.35zm9.89 3.63a5.5 5.5 0 0 1-1.38.19c-1.79 0-1.79-1.13-1.79-1.63v-3.32h-1.16V239h1.16v-1.19l1.76-.65V239H111v1.17h-1.44V243c0 .55 0 .9.8.9a4.57 4.57 0 0 0 .6 0zm3.72-6.14a2.93 2.93 0 0 1 3.14 3.18 3 3 0 0 1-3.18 3.24 2.93 2.93 0 0 1-3.09-3.19 3 3 0 0 1 3.13-3.23zm0 5.18c.78 0 1.31-.47 1.31-2.08 0-.8-.16-1.92-1.33-1.92s-1.31 1.5-1.31 2.05c.03 1.37.48 1.91 1.36 1.91zm7.35-5.18a2.93 2.93 0 0 1 3.14 3.18 3 3 0 0 1-3.18 3.24 2.93 2.93 0 0 1-3.09-3.19 3 3 0 0 1 3.13-3.23zm0 5.18c.78 0 1.31-.47 1.31-2.08 0-.8-.16-1.92-1.33-1.92s-1.31 1.5-1.31 2.05c.01 1.37.46 1.91 1.33 1.91zm4.46-7.65h1.78v8.67h-1.78zm6.79 3.88h-.9V239h.9v-.83c0-1.07.36-1.93 2.09-1.93a7.74 7.74 0 0 1 1 .06v1.24a2.24 2.24 0 0 0-.37 0c-.91 0-.91.48-.91.79v.67h1.13v1.26H135v4.8h-1.76zm6.49-1.41a2.93 2.93 0 0 1 3.14 3.18 3 3 0 0 1-3.18 3.24 2.93 2.93 0 0 1-3.09-3.19 3 3 0 0 1 3.13-3.23zm0 5.18c.78 0 1.31-.47 1.31-2.08 0-.8-.16-1.92-1.33-1.92s-1.31 1.5-1.31 2.05c.03 1.37.48 1.91 1.36 1.91zm4.48-3.54c0-.29 0-1.16-.08-1.51h1.67v1.16a1.83 1.83 0 0 1 2.09-1.15v1.6c-1.8-.17-1.91.75-1.91 1.51v3h-1.78zm11.64 4.56a4.88 4.88 0 0 1-.06-.83 2.34 2.34 0 0 1-3.32.49 1.88 1.88 0 0 1-.53-1.33 2 2 0 0 1 1.28-1.88 6.32 6.32 0 0 1 2.4-.34 2.36 2.36 0 0 0-.08-.8.82.82 0 0 0-.79-.5.81.81 0 0 0-.67.34.91.91 0 0 0-.13.54h-1.74a1.7 1.7 0 0 1 .68-1.43 3.17 3.17 0 0 1 1.83-.49 2.91 2.91 0 0 1 2.16.78 2.4 2.4 0 0 1 .42 1.49v2.43a7.35 7.35 0 0 0 .14 1.54zm-2.18-1.87a.84.84 0 0 0 .86.86 1 1 0 0 0 .75-.35 2.22 2.22 0 0 0 .34-1.5c-1.14-.09-1.95.27-1.95.99zm9.22-6.78h1.79v8.68h-1.8v-.88a1.63 1.63 0 0 1-.61.68 2.13 2.13 0 0 1-1.18.31c-1.62 0-2.58-1.12-2.58-3s1.09-3.25 2.67-3.25a1.94 1.94 0 0 1 1.7.83zm-1.35 7.59a1.28 1.28 0 0 0 1.13-.68 3.23 3.23 0 0 0 .29-1.43c0-1.19-.52-1.83-1.32-1.83-1.19 0-1.32 1.43-1.32 2-.01 1.07.33 1.94 1.22 1.94zm5.88-5l1.37 4.11 1.39-4.11h1.71l-2.18 6.06h-2l-2.19-6.06zm8.63 6.06a4.8 4.8 0 0 1-.06-.83 2.34 2.34 0 0 1-3.32.49 1.88 1.88 0 0 1-.53-1.33 2 2 0 0 1 1.28-1.88 6.32 6.32 0 0 1 2.4-.34 2.36 2.36 0 0 0-.08-.8.82.82 0 0 0-.79-.5.81.81 0 0 0-.67.34.91.91 0 0 0-.13.54h-1.74a1.7 1.7 0 0 1 .68-1.43 3.17 3.17 0 0 1 1.83-.49 2.91 2.91 0 0 1 2.16.78 2.4 2.4 0 0 1 .42 1.49v2.43a7.35 7.35 0 0 0 .14 1.54zm-2.18-1.87a.84.84 0 0 0 .86.86 1 1 0 0 0 .75-.35 2.22 2.22 0 0 0 .34-1.5c-1.14-.09-1.96.27-1.96.99zm5.24-3.1v-1.1h1.7v.91a2.1 2.1 0 0 1 2-1.06 1.84 1.84 0 0 1 1.85 1.14 5 5 0 0 1 .17 1.81v3.27H183v-3.76a1.45 1.45 0 0 0-.1-.66.93.93 0 0 0-.86-.52 1.1 1.1 0 0 0-.92.47 1.65 1.65 0 0 0-.22.92v3.55h-1.79zm10.51 1.06c0-.22-.1-1.12-.78-1.12-.84 0-.94 1.27-.94 1.93a3.32 3.32 0 0 0 .44 1.86.62.62 0 0 0 .48.2c.19 0 .74-.08.82-1.16h1.75a2.3 2.3 0 0 1-.78 1.79 2.49 2.49 0 0 1-1.73.56 2.56 2.56 0 0 1-2.06-.8 3.52 3.52 0 0 1-.77-2.39c0-2.76 2-3.14 2.83-3.14a2.27 2.27 0 0 1 2.47 2.27zm4.22 1.34c0 .4 0 1.62 1.24 1.62a1 1 0 0 0 1.05-.84h1.62a2 2 0 0 1-.58 1.32 2.94 2.94 0 0 1-2.12.71 3 3 0 0 1-2.13-.75 3.93 3.93 0 0 1 .48-5.23 3 3 0 0 1 1.7-.5 2.6 2.6 0 0 1 2.45 1.46 4.49 4.49 0 0 1 .36 2.22zm2.25-1.12c0-.28 0-1.35-1.06-1.35-.78 0-1.1.65-1.14 1.35zm7-4.96h1.79v8.68h-1.8v-.88a1.63 1.63 0 0 1-.61.68 2.13 2.13 0 0 1-1.18.31c-1.62 0-2.58-1.12-2.58-3s1.09-3.25 2.67-3.25a1.94 1.94 0 0 1 1.7.83zm-1.35 7.59a1.28 1.28 0 0 0 1.13-.68 3.23 3.23 0 0 0 .29-1.43c0-1.19-.52-1.83-1.32-1.83-1.19 0-1.32 1.43-1.32 2-.01 1.07.33 1.94 1.22 1.94zm9.25-.69a.88.88 0 0 0 1 .83c.64 0 .94-.36.94-.72s-.14-.49-.84-.68l-1.1-.3a1.75 1.75 0 0 1-1.54-1.68c0-1.18 1.08-1.89 2.65-1.89 1.25 0 2.25.58 2.3 1.79h-1.61a.75.75 0 0 0-.86-.72c-.48 0-.84.23-.84.6s.3.49.83.64l1.09.3c1.1.3 1.62.86 1.62 1.69 0 1-.9 2.09-2.78 2.09a2.73 2.73 0 0 1-2.07-.74 1.73 1.73 0 0 1-.44-1.19zm6.5-4.31v3.61c0 .53 0 1.33.95 1.33 1.14 0 1.14-.85 1.14-1.88V239h1.82v6.06h-1.73l-.06-.8a2 2 0 0 1-1.79 1 2.31 2.31 0 0 1-1.82-.82 2.79 2.79 0 0 1-.4-1.63V239zm5.5-2.58h1.77v3.32a2 2 0 0 1 1.72-.82c1.47 0 2.64 1.16 2.64 3.2 0 2.27-1.32 3.06-2.53 3.06a2 2 0 0 1-1.82-1c0 .19 0 .48-.06.85H223zm3 3.69c-1.31 0-1.31 1.49-1.31 1.87 0 1.38.59 2 1.39 2 1.22 0 1.22-1.52 1.22-1.84.05-.43.03-2.03-1.3-2.03zm8 4.89a5.5 5.5 0 0 1-1.38.19c-1.79 0-1.79-1.13-1.79-1.63v-3.32h-1.16V239h1.16v-1.19l1.76-.65V239H234v1.17h-1.44V243c0 .55 0 .9.8.9a4.57 4.57 0 0 0 .6 0zm1-8.59h1.89V238H235zm.06 2.59h1.78v6.07h-1.74zm6.94 6a5.5 5.5 0 0 1-1.38.19c-1.79 0-1.79-1.13-1.79-1.63v-3.32h-1.16V239h1.16v-1.19l1.76-.65V239H242v1.17h-1.44V243c0 .55 0 .9.8.9a4.57 4.57 0 0 0 .6 0zm1.1-8.61h1.78v8.67h-1.78zm4.76 6.1c0 .4 0 1.62 1.24 1.62a1 1 0 0 0 1.05-.84h1.62a2 2 0 0 1-.58 1.32 2.94 2.94 0 0 1-2.12.71 3 3 0 0 1-2.13-.75 3.93 3.93 0 0 1 .48-5.23 3 3 0 0 1 1.7-.5 2.6 2.6 0 0 1 2.45 1.46 4.49 4.49 0 0 1 .36 2.22zm2.25-1.12c0-.28 0-1.35-1.06-1.35-.78 0-1.1.65-1.14 1.35zm10.34-4.96h1.79v8.68h-1.8v-.88a1.63 1.63 0 0 1-.61.68 2.13 2.13 0 0 1-1.18.31c-1.62 0-2.58-1.12-2.58-3s1.09-3.25 2.67-3.25a1.94 1.94 0 0 1 1.7.83zM259.1 244a1.28 1.28 0 0 0 1.13-.68 3.23 3.23 0 0 0 .29-1.43c0-1.19-.52-1.83-1.32-1.83-1.19 0-1.32 1.43-1.32 2-.01 1.07.33 1.94 1.22 1.94zm6.1-1.51c0 .4 0 1.62 1.24 1.62a1 1 0 0 0 1.05-.84h1.62a2 2 0 0 1-.58 1.32 2.94 2.94 0 0 1-2.12.71 3 3 0 0 1-2.13-.75 3.93 3.93 0 0 1 .48-5.23 3 3 0 0 1 1.7-.5 2.6 2.6 0 0 1 2.45 1.46 4.49 4.49 0 0 1 .36 2.22zm2.25-1.12c0-.28 0-1.35-1.06-1.35-.78 0-1.1.65-1.14 1.35zm4.2-2.37l1.37 4.11 1.39-4.11h1.71l-2.18 6.06h-2l-2.19-6.06zm6.66 3.49c0 .4 0 1.62 1.24 1.62a1 1 0 0 0 1.05-.84h1.62a2 2 0 0 1-.58 1.32 2.94 2.94 0 0 1-2.12.71 3 3 0 0 1-2.13-.75 3.93 3.93 0 0 1 .48-5.23 3 3 0 0 1 1.7-.5 2.6 2.6 0 0 1 2.45 1.46 4.49 4.49 0 0 1 .36 2.22zm2.25-1.12c0-.28 0-1.35-1.06-1.35-.78 0-1.1.65-1.14 1.35zm2.99-4.98h1.78v8.67h-1.78zm6.19 2.47a2.93 2.93 0 0 1 3.14 3.18 3 3 0 0 1-3.18 3.24 2.93 2.93 0 0 1-3.09-3.19 3 3 0 0 1 3.13-3.23zm0 5.18c.78 0 1.31-.47 1.31-2.08 0-.8-.16-1.92-1.33-1.92s-1.31 1.5-1.31 2.05c.03 1.37.48 1.91 1.36 1.91zm6.15-5.04v.86a2 2 0 0 1 1.85-1c1.57 0 2.52 1.18 2.52 3s-.89 3.24-2.64 3.24a2 2 0 0 1-1.69-.78v3h-1.81V239zm2.62 3c0-.72-.18-2-1.22-2-.58 0-1.39.43-1.39 2.06 0 .36 0 1.9 1.32 1.9.78.04 1.28-.78 1.28-1.96zm3.08-1.85c0-.38 0-.76-.06-1.14h1.71l.06.78a2.09 2.09 0 0 1 1.87-.91 1.85 1.85 0 0 1 1.91 1.14 2 2 0 0 1 1.94-1.13 2 2 0 0 1 1.85 1 3.49 3.49 0 0 1 .3 1.79v3.42h-1.79v-3.6c0-.65-.1-1.37-1-1.37s-1.09 1-1.09 1.9v3h-1.79v-3.6c0-.47 0-1.33-1-1.33s-1.12 1-1.12 1.37v3.56h-1.79zm12.72 2.34c0 .4 0 1.62 1.24 1.62a1 1 0 0 0 1.05-.84h1.62a2 2 0 0 1-.58 1.32 2.94 2.94 0 0 1-2.12.71 3 3 0 0 1-2.13-.75 3.93 3.93 0 0 1 .48-5.23 3 3 0 0 1 1.7-.5 2.6 2.6 0 0 1 2.45 1.46 4.49 4.49 0 0 1 .36 2.22zm2.25-1.12c0-.28 0-1.35-1.06-1.35-.78 0-1.1.65-1.14 1.35zm3.02-1.28v-1.1h1.7v.91a2.1 2.1 0 0 1 2-1.06 1.84 1.84 0 0 1 1.82 1.16 5 5 0 0 1 .17 1.81v3.27h-1.81v-3.78a1.45 1.45 0 0 0-.1-.66.93.93 0 0 0-.86-.52 1.1 1.1 0 0 0-.92.47 1.65 1.65 0 0 0-.22.92v3.55h-1.79zm10.87 4.91a5.5 5.5 0 0 1-1.38.19c-1.79 0-1.79-1.13-1.79-1.63v-3.32h-1.16V239h1.16v-1.19l1.76-.65V239h1.44v1.17H329V243c0 .55 0 .9.8.9a4.57 4.57 0 0 0 .6 0z" fill="#fff"/></g></svg>