<svg xmlns="http://www.w3.org/2000/svg" viewBox="0 0 495.69 452.19"><g data-name="Layer 2"><path d="M97.82 430.57a23.94 23.94 0 0 1-4.29-.62c-18.06-6.58-34.78-15.44-48.34-29.37-12-12.3-18.36-27.11-18.67-44.34-.22-13.24-3.52-25.93-7.43-38.43-3.58-11.51-8.37-22.64-11.87-34.17a152 152 0 0 1-6-26.95C-2.2 226.29.87 197 19.88 171.53a109.83 109.83 0 0 1 17.68-18.13c4.19-3.5 6-6.94 6.16-12.29.56-19.11 3.39-37.84 10.28-55.78 4.22-10.95 10.16-20.8 19.17-28.5 6.11-5.22 12.92-9.06 22.29-9.69-.53 4.17-1 7.64-1.41 11.09-2.89 21.77 1.1 41.93 14.57 59.77 3.38 4.47 7.32 7.85 13.32 8 8 .25 12.29-6.28 8.67-13.45a20.37 20.37 0 0 0-2.77-3.68c-15.41-18.36-17.54-39-9.35-60.75 6.77-18 19.6-31.38 36-41 15.63-9.13 32.67-8.65 49.34-3.64 9.5 2.85 18.45 7.65 27.46 12 5.85 2.8 5.7 3.12 10.46-.81s10.18-4.77 14.75-.88c4.07 3.46 7.12 2.47 11.06.43 6.15-3.19 12.44-6.14 18.82-8.84 17.13-7.24 34.06-6 50.85 1.42a92.34 92.34 0 0 1 33.22 24.54c3.1 3.6 6.1 6.37 11.4 6.75 2.79.2 5.45 3.22 8 5.15 2.18 1.64 3.87 4.3 6.26 5.21 14.05 5.34 23.27 15.68 30.24 28.41 8.63 15.77 13.06 32.91 15.49 50.56.73 5.32 2 8.75 7.8 10.59 6.31 2 8.67 8.08 6.21 14.38-1.53 3.93-1 6.53 1.77 9.62 13.12 14.44 21.14 31.45 24.7 50.6.73 3.93 2.23 6.71 6.25 8.83 9.26 4.88 9.46 14.6.49 20-3.65 2.21-4.92 4.83-5.16 8.64-1.13 18.4-6.1 35.9-12.66 53-1.77 4.6-2.49 8.2 1.23 12.63 4.32 5.14 2.51 12.27-3.86 15.68-4.14 2.21-5.11 5-5.46 9.09-.62 7.41-1.94 14.77-2.38 22.18a13.71 13.71 0 0 0 2.34 7.68c2.72 4.18 4.36 8.28 1.66 12.9s-6.78 7.06-12.24 5.82c-3.48-.79-5.17 1.44-7.22 3.35-5.83 5.42-11.43 11.12-17.57 16.17A100.07 100.07 0 0 1 383 430c-3.78.74-5.7 2.55-7.42 5.74-3.63 6.72-8.28 8.54-15.35 5.42-3.67-1.62-6.25-.76-9.32.83-10.59 5.49-21.73 9.1-33.75 9.8C299 452.87 282.75 447.17 268 437c-4.26-2.93-7.56-5.54-12.63-.76-3.38 3.19-8.52 2.51-12.16-.48s-6.33-1.93-9.61.25a93.05 93.05 0 0 1-37.72 14.81c-20.25 3.08-40.1 1-58.91-6.94-14.25-6-21.17-18.47-23.52-33.13a64.77 64.77 0 0 1 4-34.84c7.47-18.51 22.45-26.61 41.17-29.24 4.56-.64 9.24-.46 13.86-.7 6.57-.35 7.44-1 8.36-7.54 1.47-10.51 3.93-20.7 9-30.09 5-9.22 12.07-16.34 22.72-18 5.68-.9 11.69 0 17.53.48 3.19.26 6.32 1.31 10.83 2.29-3.56-7.74-2-13.88 2.41-19.92-8.23-4-16.47-4.57-24.45-4.24-21.37.9-36.89 11.67-46.58 30.5-3.49 6.79-5.9 14.18-8.35 21.46-1.31 3.88-3 5.66-7.44 6.07-7.58.69-15 2.63-23.37 4.19-1.07-1.57-2.68-3.83-4.17-6.16-5.3-8.27-11.2-16-19-22.09-13.68-10.64-29-14.77-45.57-9.14-8.88 3-17.31 7.75-25.37 12.65-5.8 3.52-6.51 8.43-3.71 13.23s7.21 6.56 12.46 4.41a67.51 67.51 0 0 0 8.7-4.89c6.24-3.72 12.66-6.7 20.14-7.06a30.5 30.5 0 0 1 22.62 8 64.48 64.48 0 0 1 14.23 19c1.81 3.5 1.16 6-1.28 9-4.34 5.37-8.73 10.89-11.93 17-9.85 18.39-10.26 37.8-4.63 57.58.68 2.39 1.37 4.79 2.19 7.87zm140.59-228.2c-2.87.61-5.81 1.36-8.8 1.84-16.61 2.67-31.55 1.08-42.72-14-7.25-9.75-17.27-16.88-27.47-23.38C137 152.6 113 146.49 86.75 154a31.55 31.55 0 0 0-8.45 3.54c-4.53 2.93-5.61 8.52-3.19 13.72 1.78 3.82 5 5.11 10.46 4.18a28.69 28.69 0 0 0 3-.71c23.37-6.63 44.7-2.28 64.14 12a65.94 65.94 0 0 1 5.61 5.22 125 125 0 0 1-31.52 29.18c-22.64 14.81-53.42 14.59-73.24-4.88a14.15 14.15 0 0 0-2.42-1.9c-4.27-2.66-8.33-2.15-11.85 1.43-4.5 4.57-4.35 10.82 1.17 15.55 22.15 19 47.08 26.9 75.74 17.46 19.54-6.44 35.18-18.82 49-33.71l9-9.67c18.74 22.94 41.69 23.88 66.21 15.52zm242.69 43.92a30.06 30.06 0 0 0-2.44-4.79c-3.66-5.4-8.85-4.89-14.42-3.72-24.57 5.13-49.18 10.05-73.76 15.11-13.8 2.84-27.59 5.7-41.34 8.75-4.89 1.09-7 4-5.5 8.06.82 2.18 3.54 4.25 5.87 5.16Q399 294.13 448.64 313c6.28 2.4 16-1.85 18.46-8.15 7.1-18.24 12.55-36.91 14-58.56zm-108.28-84.74c-.29 5.22 7.78 12.4 14.06 10C401.48 166 415.94 160 430.39 154a7.7 7.7 0 0 0 3.61-3.51c1.87-3.84 3.39-7.85 4.89-11.85a9.42 9.42 0 0 0 .76-4.42c-2.87-19.33-6.64-38.43-16.25-55.78-4.9-8.84-10.9-16.88-19.7-22.21-3.21-1.94-6.94-3.8-10.53-4-1.92-.12-4.06 3.33-6.11 5.17a2.55 2.55 0 0 1-.59.49c-5 2.22-5.81 6.56-6.06 11.43q-.72 14.2-1.91 28.38c-1.76 20.64-3.67 41.3-5.68 63.85zm-.39-122.94C368 34 364.11 29.19 359.51 25.2c-14.32-12.42-30.45-20.81-50-21-17-.15-31.14 7.72-45.14 15.88-3.83 2.23-3.8 4.15-.31 8.18 13.46 15.53 27.07 30.93 40.59 46.41 2.23 2.55 4.59 3.84 8.1 2.57a11.54 11.54 0 0 1 11 1.59c4.07 3 7.05 1.31 10.31-1.13 8.23-6.15 16.43-12.35 24.81-18.29 5.53-3.92 10.87-7.71 11.15-15.42.1-1.4 1.23-2.78 2.41-5.38zm-112.74 379.9c.64 5.35 1.62 9.2 5.17 12 26.16 20.52 55.4 24 84.8 8.18 2.61-1.41 4.48-2.93 4.38-6.45a11.29 11.29 0 0 1 5-9.92c3.18-2.17 4-5.08 3.68-8.66q-1.47-19.55-2.77-39.11c-.2-3.14-1.57-5-4.31-6.64-3.79-2.28-6.7-1-10 .88q-36.31 21-72.69 41.86c-4.38 2.52-8.73 5.17-13.26 7.86zm214.05-187.14c-1.94-2.46-2.6-4-3.75-4.63-3.38-1.84-6.95-3.31-10.44-4.93-22.61-10.48-45.26-20.88-67.8-31.49-4.59-2.16-8.36-3.29-12.22 1.38a11.76 11.76 0 0 1-10.45 3.94c-3.52-.32-5.79 1.09-7.37 4.26q-11.87 23.81-23.94 47.52c-1.67 3.29-1 5.57 1.6 8.15s5.39 3.29 9 2.55q58.07-12 116.17-23.87c2.66-.55 5.21-1.62 9.2-2.88zm-215.92-27.2c3.77-.46 6-.5 8-1 27.56-7 55.11-14 82.62-21.19 8.38-2.19 11.84-10.26 7.78-17.76-9.15-16.91-18.74-33.6-27.54-50.7-3-5.88-6.43-8.19-13.05-7.57-4.26.4-7 1.18-9.14 5.19-15 28.33-30.23 56.53-45.34 84.8-1.09 2.11-1.8 4.47-3.32 8.23zm76.39 77.45c.79 1.93 1.63 4.3 2.71 6.55 6.75 14.12 13.63 28.18 20.3 42.33 2.35 5 4.59 9.78 10.89 10.76a5.67 5.67 0 0 1 3.19 2c3.33 4.23 7.25 3.62 11.77 2.28 20.65-6.1 41.37-12 62.06-17.93a21.49 21.49 0 0 0 4.35-1.53 4.82 4.82 0 0 0 .79-8.25 18.87 18.87 0 0 0-4.82-2.34c-32.78-12.62-65.59-25.15-98.33-37.87-5.27-1.99-9.35-1.62-12.9 4zm45.13 76.72c-5.46 4.35-9.23 7.68-13.35 10.5-2.62 1.8-2.8 4.11-2.66 6.7.68 12.3 1.12 24.62 2.23 36.89.87 9.57 10.37 15.74 19.74 13.53 22.28-5.28 40.13-17.87 55.79-34 6.93-7.13 5-14-4.74-17-10.79-3.29-21.64-6.4-32.47-9.56-8.59-2.46-17.18-4.93-24.53-7.06zM351.19 185c-.72.19-1.94.55-3.18.86-8.94 2.26-17.89 4.47-26.81 6.77q-26.41 6.79-52.8 13.66c-2.66.69-6.52.77-6.43 4.12.06 2.21 2.74 4.44 4.47 6.47a21.38 21.38 0 0 0 3.63 2.83c12.11 9.08 24.34 18 36.29 27.3 6.22 4.84 12 9.83 20.27 4.2 5.19.6 7.09-3 9-6.84 5.93-12 12-23.84 18-35.75 2-3.9 4.13-7.71 5.76-11.74 1.78-4.46-3.2-11.88-8.2-11.88zm-5.41 164.46l.59-2.51c-4.75-2.84-9.47-5.71-14.25-8.52q-35.57-20.89-71.18-41.71c-7.09-4.13-10.1-3-10.61 5.13-.85 13.57-.68 27.21-.86 40.82 0 2.91 2 4.24 4.28 5.83a19.5 19.5 0 0 1 6.53 7.1c1.76 3.8 3.88 4.67 7.81 4.15 19.09-2.55 38.22-4.8 57.33-7.25 6.79-.88 13.58-2.03 20.36-3.05zM480 216.83c-.13-.67-.34-1.68-.53-2.68a101.78 101.78 0 0 0-17.58-41.52c-4.73-6.54-9-14.07-18.84-13.57-5.89-4.28-11.54-2.18-17.22.58-2.07 1-4.29 1.72-6.43 2.59-10 4.06-20 8.09-30 12.22-2.33 1-4.73 1.88-4.64 5.31.09 3.16 1.95 4.54 4.38 5.67.93.43 1.85.89 2.79 1.32l63 29.05c5.36 2.47 10.67 5.1 16.14 7.32 4.84 1.96 8.93-.96 8.93-6.29zM377.73 62.51a51.53 51.53 0 0 0-4.42-4.79c-2.29-2-4.66-1.38-7 .36q-16.05 12-32.2 23.85c-2.58 1.89-3.22 4.25-3.27 7.31s-.07 6.48-1.51 8.92c-2.56 4.35-1.28 7.7.82 11.47 7 12.56 13.88 25.19 20.8 37.8 2.59 4.73 5 9.55 7.78 14.18 1.47 2.48 2.36 5.89 6.71 4.93 4.19-.93 3.86-4.35 4.38-7.21.54-3 .61-6.12.87-9.19 1.38-16.1 2.8-32.2 4.1-48.3 1.04-12.54 1.89-25.08 2.94-39.33zM312.4 272.85a14.72 14.72 0 0 0-1.71.18l-45.64 10.73a6 6 0 0 0-1.45.48c-5 2.67-4.44 7.25 1.69 10.87q39.77 23.5 79.71 46.79c4.66 2.73 7.23 2.38 10.37-.65s.61-5.74-.61-8.33c-6.7-14.15-14.47-27.87-20-42.45-3.88-10.19-14.35-10.66-20.23-17.36-.44-.43-1.53-.2-2.13-.26zm-63.07 119.94v12.34c.09 11.79 2.8 13.43 13.22 7.47q40.15-22.94 80.15-46.13a30.54 30.54 0 0 0 3.88-2.5c2.93-2.34 1.5-5.39.43-7.74-.59-1.31-3.16-2.4-4.83-2.4A88.52 88.52 0 0 0 330.7 355c-18 2.38-36 5-54.11 7.11-8.16 1-16 1.69-22.94 7.13-2.75 2.17-4.35 4-4.33 7.33.05 5.43.01 10.83.01 16.22zm51.08-297.18c-11.31 2.67-23 5.27-34.62 8.33-2.15.57-3.9 2.91-5.68 4.6-2 1.9-3.46 4.78-5.79 5.81-4.06 1.79-5 4.55-5 8.49.07 23.1 0 46.2.06 69.31 0 2.78-.29 6.19 3.26 7 3.73.85 4.47-2.78 5.72-5.11q22.47-41.66 44.79-83.41c4.1-7.72 4.02-7.77-2.74-15.02zm-39.85 121.56c-2.16 1.41-3.34 2.64-4.75 3-6.12 1.63-6.72 6.06-6.57 11.38.24 8.48.06 17 .07 25.44 0 7.84.4 15.51 8.75 19.65a3.43 3.43 0 0 1 1.05 1.11c1.76 2.42 4.19 2.8 6.87 2.17 14.24-3.35 28.45-6.8 42.71-10.07 3.15-.72 4.48-2.38 5.51-5.46 1.64-4.91-.3-7.68-4-10.38-13-9.61-25.93-19.38-38.9-29.06-3.43-2.55-6.97-5.05-10.74-7.78zm-.13-186.88c-11.11 4.21-11.11 4.21-11.12 15.3 0 11.54.21 23.09-.08 34.63-.17 6.74 0 12.85 7.7 15.55a3.75 3.75 0 0 1 1.65 1.58c2.19 3.54 5.3 3.28 8.76 2.44 9.21-2.24 18.48-4.2 27.67-6.52s11.9-10.75 5.7-17.92c-12.08-14-24.29-27.82-36.49-41.69a38.87 38.87 0 0 0-3.79-3.37zm-21.69 65.83c-4.14 0-8.49.55-12.65-.1-14.51-2.26-25.44-10.87-34.31-21.77-7.74-9.5-14.2-20-21.23-30.12-1.46-2.09-2.65-4.45-4.44-6.21-3.55-3.48-6.92-3.51-11.07-.67-5 3.4-6.11 6.89-3 13.4 11.94 25.17 29.25 45.67 53.54 59.8 7 4.08 14.88 5.59 22.9 5.78 4.2.1 8.66 0 11.53-2.37zM376.92 352c1.84 1.49 2.35 2.19 3 2.39Q410 363.5 440.2 372.5c2.66.79 15.69-6.43 16.72-8.92a5.62 5.62 0 0 0 .32-1.5c.94-8.12 2.13-16.23 2.68-24.38.31-4.52-2.66-7.9-6.42-8.12a18.52 18.52 0 0 0-6 1q-31.72 9.09-63.41 18.31a72.22 72.22 0 0 0-7.17 3.11zM237.6 363.89l4-16.25c-1.66-.3-3.13-.67-4.61-.8-12-1.06-22.83 2.54-33 8.5-16.41 9.67-29.52 22.91-40.48 38.34a23.1 23.1 0 0 0-3.39 6.85c-1.75 6.1 1.91 11.08 8.26 10.69 3.07-.19 6.32-1.81 9-3.58 2.25-1.51 3.71-4.19 5.56-6.31 9.63-11 18.91-22.56 32.36-29.16 7.02-3.45 14.7-5.53 22.3-8.28z" fill="#4f5c5e" data-name="Layer 1"/></g></svg>