<svg xmlns="http://www.w3.org/2000/svg" viewBox="0 0 251.61 252.99"><defs><style>.cls-1{fill:#4f5c5e;}</style></defs><title>Asset 1</title><g id="Layer_2" data-name="Layer 2"><g id="Layer_1-2" data-name="Layer 1"><g id="Layer_2-2" data-name="Layer 2"><g id="page2"><g id="Artwork_2" data-name="Artwork 2"><polygon points="13.82 183.65 31.83 168.28 27.41 154.01 2.41 151.13 0 119.83 22.74 113.49 25.89 101.08 7.54 85.98 23.57 56.14 42.02 63.54 52.76 52.98 42.49 31.01 69.3 14.41 84.89 28.99 97.29 26.23 99.4 1.51 132.69 0 137.43 20.93 152.19 25.66 162.71 6.69 195.41 21.59 187.87 43.54 197.91 51.14 218.39 41.51 237.79 68.92 222.14 85.84 225.33 97.23 250.33 100.12 251.61 132.75 230.51 134.99 225.83 149.76 244.59 163.83 231.01 193.47 209.39 186.58 200.7 197.96 210.57 220.95 185.49 237.65 169.28 221.63 153.3 225.93 152 248.61 119.95 252.99 114.28 229.91 101.88 226.71 88.59 245.18 57.01 228.94 65.08 210.16 52.77 199.28 31.17 210.25 13.82 183.65"/><path class="cls-1" d="M125.61,52.32a74.52,74.52,0,1,1-74.52,74.52h0a74.52,74.52,0,0,1,74.52-74.52"/><path d="M125.59,89A37.83,37.83,0,1,1,87.76,126.8h0A37.83,37.83,0,0,1,125.59,89h0"/></g></g></g></g></g></svg>