<svg xmlns="http://www.w3.org/2000/svg" viewBox="0 0 334.61 335.77"><defs><style>.cls-1{fill:#222e33;}.cls-2{fill:#4f5c5e;}</style></defs><title>Asset 2</title><g id="Layer_2" data-name="Layer 2"><g id="Layer_1-2" data-name="Layer 1"><g id="Layer_2-2" data-name="Layer 2"><g id="page2"><g id="Artwork_2" data-name="Artwork 2"><polygon class="cls-1" points="18.29 243.92 42.26 223.47 36.39 204.56 3.15 200.75 0 159.23 30.24 150.77 34.46 134.29 10.07 114.3 31.45 74.66 55.97 84.46 70.27 70.42 56.64 41.29 92.33 19.22 113.04 38.56 129.52 34.87 132.37 2.06 176.65 0 182.92 27.77 202.55 34.03 216.57 8.83 260.03 28.56 249.96 57.7 263.32 67.78 290.56 54.96 316.32 91.3 295.49 113.78 299.71 128.9 332.96 132.69 334.61 175.99 306.54 178.99 300.28 198.61 325.22 217.25 307.12 256.61 278.37 247.49 266.79 262.61 279.88 293.11 246.52 315.32 224.97 294.09 203.72 299.8 201.96 329.9 159.33 335.77 151.82 305.14 135.34 300.92 117.63 325.43 75.66 303.93 86.42 279.01 70.07 264.59 41.33 279.17 18.29 243.92"/><path class="cls-2" d="M167,69.17a99.11,99.11,0,1,1-99.11,99.11h0A99.11,99.11,0,0,1,167,69.17h0"/><path class="cls-1" d="M167,118a50.35,50.35,0,1,1-50.35,50.35A50.35,50.35,0,0,1,167,118h0"/></g></g></g></g></g></svg>