<?xml version="1.0" encoding="utf-8"?>
<!-- Generator: Adobe Illustrator 21.1.0, SVG Export Plug-In . SVG Version: 6.00 Build 0)  -->
<svg version="1.1" id="Layer_1" xmlns="http://www.w3.org/2000/svg" xmlns:xlink="http://www.w3.org/1999/xlink" x="0px" y="0px"
	 viewBox="0 0 766.3 890" style="enable-background:new 0 0 766.3 890;" xml:space="preserve">
<style type="text/css">
	.st0{fill:#68767A;}
	.st1{fill:#4F5C5E;}
	.st2{fill:#DBDBDB;}
	.st3{fill:#F2F2F2;}
</style>
<title>Artwork 2</title>
<path class="st0" d="M75.3,889c0,0,89.4-163.6,12.4-318.3C-38,422.7-48.6,121.2,189.4,31.4c215.4-81.2,417.5,12.6,443,84
	c42.9,70.4,68.7,197.2,66.4,204.3s-22.5,39.5-4.2,62.2s71,101.7,71.6,108.9s-5.4,21.3-12.5,28s-33.8,10-39.4,15.5
	s-3.5,22.1,2.1,39.4s-15,21.6-21.8,25.9s17.8,8.6,5.2,33.2s-15.4,37.7-8.3,45.6s-4.7,77.5-52.9,77.8c-46.8,10-111.4-4.1-136.5,33.6
	c-0.2,0.5-0.3,1.1-0.5,1.7c1.8,53.8-4.3,57.9-7.3,68.4s-0.2,23.6-2.1,30.1L75.3,889z"/>
<path class="st1" d="M367.9,516.7c0,0,7.8,138.6,68.5,163.8c66.9,41.3,186.1,73.3,203.4,55c12.6-24,8.9-52.1,8.3-77.8
	c10.2-27,14.7-38.8,11.4-46.7c8.6-11.6,11.6-15.4,9.3-34.2c7-19.2,1.2-16,3.1-28c6.1-9.6,10.2-9.8,10.4-16.6
	c-5.2-5.9-48.9-4.5-32.2-37.3c11-26.6,37.3-76.8,34.2-85s-34.1-37.5-22.8-63.3S659.4,275,648,227.4s-13.7-24.3-16.6-44.6
	s-61.3-133-202.3-151.4s-240.2,20.8-254.2,27C152,58.3,15.1,177,21.3,289.6s32.9,206.3,98.6,233.3c46.7,55.7,35.4,52.3,93.4,52.9
	S367.8,516.7,367.9,516.7"/>
<polygon class="st2" points="548.3,855.1 271.2,797.8 76.9,811.2 76.9,890 548.3,890 "/>
<polygon class="st3" points="218.2,890 271.2,797.8 548.3,855.1 548.3,890 "/>
</svg>
