<svg xmlns="http://www.w3.org/2000/svg" xmlns:xlink="http://www.w3.org/1999/xlink" viewBox="0 0 766.3 890.02"><defs><style>.cls-1{fill:none;}.cls-2{clip-path:url(#clip-path);}.cls-3{fill:#68767a;}.cls-4{fill:#4f5c5e;}.cls-5{fill:#222e33;}.cls-6{fill:#fc4799;}.cls-7{fill:#dd1969;}</style><clipPath id="clip-path" transform="translate(0 0)"><rect class="cls-1" width="766.3" height="890.02"/></clipPath></defs><title>Artwork 2</title><g id="Layer_2" data-name="Layer 2"><g id="page2"><g id="Artwork_2" data-name="Artwork 2"><g class="cls-2"><g class="cls-2"><path class="cls-3" d="M75.27,889s89.36-163.63,12.45-318.34C-38,422.68-48.63,121.21,189.4,31.42c215.36-81.24,417.51,12.56,443,84,42.93,70.41,68.67,197.24,66.4,204.28s-22.54,39.52-4.15,62.21,71,101.71,71.59,108.88-5.4,21.32-12.45,28-33.77,10-39.43,15.55-3.55,22.08,2.08,39.41-15,21.58-21.79,25.92,17.8,8.58,5.19,33.19-15.37,37.74-8.3,45.63-4.7,77.48-52.91,77.77c-46.85,10-111.44-4.13-136.48,33.59-.17.54-.32,1.09-.47,1.66,1.84,53.8-4.27,57.92-7.26,68.44s-.25,23.58-2.08,30.07Z" transform="translate(0 0)"/><path class="cls-4" d="M367.85,516.71s7.83,138.64,68.48,163.84c66.92,41.27,186.13,73.27,203.36,55,12.56-24,8.89-52.11,8.3-77.77,10.21-27,14.68-38.81,11.41-46.66,8.61-11.6,11.6-15.36,9.34-34.22,7-19.18,1.15-16,3.11-28,6.09-9.63,10.23-9.85,10.37-16.6-5.2-5.89-48.87-4.5-32.16-37.33,10.95-26.63,37.27-76.78,34.24-85s-34.06-37.49-22.82-63.26S659.38,275,648,227.41s-13.74-24.3-16.6-44.6-61.32-133-202.32-151.4-240.17,20.78-254.2,27C152,58.31,15.1,177,21.32,289.63S54.23,495.9,119.88,522.93c46.67,55.67,35.43,52.28,93.38,52.88s154.59-59.11,154.59-59.11" transform="translate(0 0)"/><polygon class="cls-5" points="69.96 380.32 93.93 359.87 88.06 340.96 54.82 337.15 51.67 295.63 81.91 287.17 86.13 270.69 61.74 250.7 83.12 211.06 107.64 220.86 121.94 206.82 108.31 177.69 144 155.62 164.71 174.96 181.19 171.27 184.04 138.46 228.32 136.4 234.59 164.17 254.22 170.43 268.24 145.23 311.7 164.96 301.63 194.1 314.99 204.18 342.23 191.36 367.99 227.7 347.16 250.18 351.38 265.3 384.63 269.09 386.28 312.39 358.21 315.39 351.95 335.01 376.89 353.65 358.79 393.01 330.04 383.89 318.46 399.01 331.55 429.51 298.19 451.72 276.64 430.49 255.39 436.2 253.63 466.3 211 472.17 203.49 441.54 187.01 437.32 169.3 461.83 127.33 440.33 138.09 415.41 121.74 400.99 93 415.57 69.96 380.32"/><path class="cls-4" d="M218.7,205.57a99.11,99.11,0,1,1-99.11,99.11,99.11,99.11,0,0,1,99.11-99.11" transform="translate(0 0)"/><path class="cls-5" d="M218.7,254.35a50.35,50.35,0,1,1-50.35,50.35,50.35,50.35,0,0,1,50.35-50.35" transform="translate(0 0)"/><polygon points="384.32 297.33 402.33 281.96 397.91 267.69 372.91 264.81 370.5 233.51 393.24 227.17 396.39 214.76 378.04 199.66 394.07 169.82 412.52 177.22 423.26 166.66 412.99 144.69 439.8 128.09 455.39 142.67 467.79 139.91 469.9 115.19 503.19 113.68 507.93 134.61 522.69 139.34 533.21 120.37 565.91 135.27 558.37 157.22 568.41 164.82 588.89 155.19 608.29 182.6 592.64 199.52 595.83 210.91 620.83 213.8 622.11 246.43 601.01 248.67 596.33 263.44 615.09 277.51 601.51 307.15 579.89 300.26 571.2 311.64 581.07 334.63 555.99 351.33 539.78 335.31 523.8 339.61 522.5 362.29 490.45 366.67 484.78 343.59 472.38 340.39 459.09 358.86 427.51 342.62 435.58 323.84 423.27 312.96 401.67 323.93 384.32 297.33"/><path class="cls-4" d="M496.11,166a74.52,74.52,0,1,1-74.52,74.52A74.52,74.52,0,0,1,496.11,166" transform="translate(0 0)"/><path d="M496.09,202.65a37.83,37.83,0,1,1-37.83,37.83,37.83,37.83,0,0,1,37.83-37.83" transform="translate(0 0)"/><path class="cls-6" d="M215.33,294.8c22.82-5.31,283.25-65.33,283.25-65.33l4.15,12.44s-273.42,62.17-286.36,65.34-23.86-7.13-1-12.46" transform="translate(0 0)"/><polygon class="cls-7" points="342.95 265.77 385.49 268.88 501.69 240.88 497.54 229.47 342.95 265.77"/></g></g></g></g></g></svg>