<svg xmlns="http://www.w3.org/2000/svg" viewBox="0 0 384 276"><defs><style>.cls-1{fill:#4f5c5e;}.cls-2{fill:#f2f2f2;}.cls-3{fill:#fc4799;}</style></defs><title>Asset 5</title><g id="Layer_2" data-name="Layer 2"><g id="page3"><rect class="cls-1" width="384" height="276" rx="12" ry="12"/><polygon class="cls-2" points="41.15 48.48 36 48.48 36 34 52.09 34 52.09 38.18 41.15 38.18 41.15 48.48"/><polygon class="cls-2" points="91.32 48.48 96.47 48.48 96.47 34 80.38 34 80.38 38.18 91.32 38.18 91.32 48.48"/><polygon class="cls-2" points="41.15 59.52 36 59.52 36 74 52.09 74 52.09 69.82 41.15 69.82 41.15 59.52"/><polygon class="cls-2" points="91.32 59.52 96.47 59.52 96.47 74 80.38 74 80.38 69.82 91.32 69.82 91.32 59.52"/><polygon class="cls-2" points="152.15 99.48 147 99.48 147 85 163.09 85 163.09 89.18 152.15 89.18 152.15 99.48"/><polygon class="cls-2" points="202.32 99.48 207.47 99.48 207.47 85 191.38 85 191.38 89.18 202.32 89.18 202.32 99.48"/><polygon class="cls-2" points="152.15 110.52 147 110.52 147 125 163.09 125 163.09 120.82 152.15 120.82 152.15 110.52"/><polygon class="cls-2" points="202.32 110.52 207.47 110.52 207.47 125 191.38 125 191.38 120.82 202.32 120.82 202.32 110.52"/><polygon class="cls-2" points="60.15 157.48 55 157.48 55 143 71.09 143 71.09 147.18 60.15 147.18 60.15 157.48"/><polygon class="cls-2" points="110.32 157.48 115.47 157.48 115.47 143 99.38 143 99.38 147.18 110.32 147.18 110.32 157.48"/><polygon class="cls-2" points="60.15 168.52 55 168.52 55 183 71.09 183 71.09 178.82 60.15 178.82 60.15 168.52"/><polygon class="cls-2" points="110.32 168.52 115.47 168.52 115.47 183 99.38 183 99.38 178.82 110.32 178.82 110.32 168.52"/><polygon class="cls-2" points="215.15 193.48 210 193.48 210 179 226.09 179 226.09 183.18 215.15 183.18 215.15 193.48"/><polygon class="cls-2" points="265.32 193.48 270.47 193.48 270.47 179 254.38 179 254.38 183.18 265.32 183.18 265.32 193.48"/><polygon class="cls-2" points="215.15 204.52 210 204.52 210 219 226.09 219 226.09 214.82 215.15 214.82 215.15 204.52"/><polygon class="cls-2" points="265.32 204.52 270.47 204.52 270.47 219 254.38 219 254.38 214.82 265.32 214.82 265.32 204.52"/><rect class="cls-3" x="158" y="95" width="38" height="21"/><rect class="cls-2" x="66" y="153" width="38" height="21"/><rect class="cls-2" x="47" y="44" width="38" height="21"/><rect class="cls-2" x="222" y="189" width="38" height="21"/></g></g></svg>