<svg xmlns="http://www.w3.org/2000/svg" viewBox="0 0 384 276"><defs><style>.cls-1{fill:#4f5c5e;}.cls-2{fill:none;stroke:#fff;stroke-miterlimit:10;stroke-width:2px;}.cls-3{fill:#fff;}.cls-4{fill:#fc4799;}.cls-5{fill:#222e33;}</style></defs><title>Asset 1</title><g id="Layer_2" data-name="Layer 2"><g id="page3"><rect class="cls-1" width="384" height="276" rx="12" ry="12"/><polyline class="cls-2" points="0 44.78 37.75 44.78 43.55 56 48.63 45 384 44.78"/><path class="cls-3" d="M32.05,31.29H30.24V24.24H27.91V22.73h6.47v1.51H32.05Z"/><path class="cls-3" d="M40.94,31.29l-.62-2H37.2l-.62,2h-2l3-8.6h2.22l3,8.6Zm-1.05-3.56-1-3.13q-.11-.36-.16-.57-.19.75-1.11,3.71Z"/><path class="cls-3" d="M47.23,26.48h3.4v4.44a9.58,9.58,0,0,1-1.56.38,10.13,10.13,0,0,1-1.49.11,3.77,3.77,0,0,1-3-1.14,4.74,4.74,0,0,1-1-3.27,4.32,4.32,0,0,1,1.19-3.23,4.51,4.51,0,0,1,3.29-1.16,6.37,6.37,0,0,1,2.54.53L50,24.58a4.31,4.31,0,0,0-2-.47,2.41,2.41,0,0,0-1.89.79A3.07,3.07,0,0,0,45.47,27,3.42,3.42,0,0,0,46,29.16a2,2,0,0,0,1.66.74,5.88,5.88,0,0,0,1.15-.12V28H47.23Z"/><path class="cls-3" d="M55.92,26.48h3.4v4.44a9.58,9.58,0,0,1-1.56.38,10.13,10.13,0,0,1-1.49.11,3.77,3.77,0,0,1-3-1.14,4.74,4.74,0,0,1-1-3.27,4.32,4.32,0,0,1,1.19-3.23,4.51,4.51,0,0,1,3.29-1.16,6.37,6.37,0,0,1,2.54.53l-.6,1.45a4.31,4.31,0,0,0-2-.47,2.41,2.41,0,0,0-1.89.79A3.07,3.07,0,0,0,54.16,27a3.42,3.42,0,0,0,.57,2.13,2,2,0,0,0,1.66.74,5.88,5.88,0,0,0,1.15-.12V28H55.92Z"/><path class="cls-3" d="M66.29,31.29H61.36V22.73h4.93v1.49H63.17V26.1h2.9v1.49h-2.9v2.21h3.12Z"/><path class="cls-3" d="M75.19,26.93A4.22,4.22,0,0,1,74,30.17a4.91,4.91,0,0,1-3.48,1.13H68.08V22.73h2.69A4.53,4.53,0,0,1,74,23.83,4.07,4.07,0,0,1,75.19,26.93ZM73.3,27q0-2.76-2.44-2.76h-1v5.58h.78Q73.3,29.79,73.3,27Z"/><path class="cls-3" d="M81.87,31.29H80.08V22.73H85v1.49H81.87v2.21h2.91v1.48H81.87Z"/><path class="cls-3" d="M91.91,31.29l-.62-2H88.16l-.62,2h-2l3-8.6h2.22l3,8.6Zm-1.05-3.56-1-3.13q-.11-.36-.16-.57-.19.75-1.11,3.71Z"/><path class="cls-3" d="M98.58,24.12a1.85,1.85,0,0,0-1.59.77A3.58,3.58,0,0,0,96.43,27q0,2.87,2.15,2.87a6.8,6.8,0,0,0,2.19-.45V31a6.07,6.07,0,0,1-2.36.44,3.59,3.59,0,0,1-2.86-1.13,4.8,4.8,0,0,1-1-3.25A5.32,5.32,0,0,1,95,24.68a3.51,3.51,0,0,1,1.4-1.54,4.13,4.13,0,0,1,2.14-.54,5.76,5.76,0,0,1,2.51.6l-.59,1.48a9.7,9.7,0,0,0-1-.4A2.88,2.88,0,0,0,98.58,24.12Z"/><path class="cls-3" d="M107.52,31.29h-4.93V22.73h4.93v1.49h-3.12V26.1h2.9v1.49h-2.9v2.21h3.12Z"/><path class="cls-3" d="M114.37,28.92a2.21,2.21,0,0,1-.83,1.83,3.63,3.63,0,0,1-2.32.67,5.46,5.46,0,0,1-2.43-.52V29.21a10,10,0,0,0,1.47.54,4.34,4.34,0,0,0,1.1.16,1.56,1.56,0,0,0,.92-.23.78.78,0,0,0,.32-.68.75.75,0,0,0-.14-.45,1.57,1.57,0,0,0-.41-.38,10.62,10.62,0,0,0-1.11-.58,5.26,5.26,0,0,1-1.18-.71,2.66,2.66,0,0,1-.63-.79,2.26,2.26,0,0,1-.23-1.05,2.21,2.21,0,0,1,.77-1.79,3.2,3.2,0,0,1,2.13-.65,5,5,0,0,1,1.27.16,8.76,8.76,0,0,1,1.27.45l-.59,1.41a8.57,8.57,0,0,0-1.13-.39,3.65,3.65,0,0,0-.88-.11,1.17,1.17,0,0,0-.79.24.79.79,0,0,0-.28.63.78.78,0,0,0,.11.42,1.22,1.22,0,0,0,.35.35,11,11,0,0,0,1.15.6,4.58,4.58,0,0,1,1.65,1.15A2.25,2.25,0,0,1,114.37,28.92Z"/><circle class="cls-3" cx="74.5" cy="106.5" r="20.5"/><circle class="cls-4" cx="149.5" cy="106.5" r="20.5"/><circle class="cls-3" cx="149.5" cy="106.5" r="14.5"/><circle class="cls-3" cx="226.5" cy="106.5" r="20.5"/><circle class="cls-3" cx="304.5" cy="106.5" r="20.5"/><circle class="cls-3" cx="74.5" cy="200.5" r="20.5"/><circle class="cls-3" cx="149.5" cy="200.5" r="20.5"/><circle class="cls-3" cx="226.5" cy="200.5" r="20.5"/><circle class="cls-3" cx="304.5" cy="200.5" r="20.5"/><rect class="cls-5" x="45" y="140" width="59" height="4"/><rect class="cls-5" x="120" y="140" width="59" height="4"/><rect class="cls-5" x="196" y="140" width="59" height="4"/><rect class="cls-5" x="275" y="140" width="59" height="4"/><rect class="cls-5" x="45" y="234" width="59" height="4"/><rect class="cls-5" x="120" y="234" width="59" height="4"/><rect class="cls-5" x="196" y="234" width="59" height="4"/><rect class="cls-5" x="275" y="234" width="59" height="4"/></g></g></svg>