<svg xmlns="http://www.w3.org/2000/svg" xmlns:xlink="http://www.w3.org/1999/xlink" viewBox="0 0 721.47 69"><defs><style>.cls-1{fill:none;}.cls-2{clip-path:url(#clip-path);}.cls-3{fill:#68767a;}.cls-4{fill:#222e33;}.cls-5{fill:#fc4799;}.cls-6{fill:#e4e4e4;}</style><clipPath id="clip-path" transform="translate(0)"><rect class="cls-1" width="721.47" height="69"/></clipPath></defs><title>Artwork 3</title><g id="Layer_2" data-name="Layer 2"><g id="page3"><g id="Artwork_3" data-name="Artwork 3"><g class="cls-2"><rect class="cls-3" width="721.47" height="69"/><rect class="cls-4" x="652.47" width="69" height="69"/><g class="cls-2"><path class="cls-5" d="M686.3,41.69a7.93,7.93,0,1,1,5.58-2.32,7.61,7.61,0,0,1-5.58,2.32m16.29,5.19-6.05-6.05a12.08,12.08,0,0,0,2.18-7A12.6,12.6,0,0,0,695.1,25a12.51,12.51,0,0,0-13.62-2.65A12.14,12.14,0,0,0,674.86,29,12.43,12.43,0,0,0,686.3,46.21a12.09,12.09,0,0,0,7-2.19l6.05,6a2.09,2.09,0,0,0,1.59.67,2.29,2.29,0,0,0,2.26-2.26,2.15,2.15,0,0,0-.65-1.59" transform="translate(0)"/><path class="cls-6" d="M41.67,28.12H40.13V48.46h1.54Zm4.94,0V48.46h1.57V31.67l13.71,16.8h.61V28.12H61V44.95L47.28,28.12h-.67ZM73.25,48.46h1.57V29.54h7.35V28.15H65.9v1.39h7.35ZM87.11,29.6H99.6V28.12h-14V48.46H99.95V46.95H87.11v-8H99V37.51H87.11V29.6Zm16.73-1.48V48.46h13V47H105.41V28.12h-1.57Zm16.41,0V48.46h13V47H121.82V28.12h-1.57Zm18,20.34V28.12H136.7V48.46h1.54Zm21.82-17.58a10.59,10.59,0,0,0-7.44-3.05c-6.19,0-10.52,4.16-10.49,10.52,0,5.55,3.57,10.37,10.49,10.37a10.49,10.49,0,0,0,7.67-3.29V37.83h-8.57v1.36h7.09v5.7a9.17,9.17,0,0,1-6.19,2.36c-5.93,0-9-4.13-9-8.92s3-9.07,9-9.07a9.45,9.45,0,0,1,6.54,2.61Zm6.45-1.28H179V28.12H165V48.46h14.38V46.95H166.51v-8h11.91V37.51H166.51V29.6Zm17.37-1.48V48.46h1.57V31.67l13.71,16.8h.61V28.12h-1.54V44.95L184.55,28.12h-.67Zm26.64,20.34h1.57V29.54h7.35V28.15H203.17v1.39h7.35V48.46ZM262.08,23h-6l-9.66,10.75V23h-4.79V48.46h4.79V37.2L257.1,48.46H263v-.29L250.78,35.35l11.29-12.17V23ZM285,43.74H270.69V38h13.76V33.54H270.69V27.69H285V23h-19V48.46h19V43.74ZM294.22,23h-5.7v.22L298.29,38V48.46h4.79V38l10.13-14.71V23h-5.77l-6.75,10.5Zm58.25,0h-5.37l-5.81,18.34L334.93,23h-3.12l-6.17,18.34-6-18.34h-5.37l9.33,25.42h4.07l3.09-7.92,2.65-8.1,2.69,8,3.16,8h4.07Zm15.43-.51c-8.79,0-13.07,6.72-13.07,13.4S359,49,367.9,49s13-6.57,13-13.15-4.28-13.36-13-13.36Zm0,4.36c6,0,8.39,4.79,8.32,9.08s-2.32,8.68-8.32,8.68-8.24-4.47-8.35-8.64,2.36-9.12,8.35-9.12Zm39.66,21.24-7.7-8.68c4.83-1,6.43-4.5,6.43-8,0-4.39-3.16-8.39-9.15-8.43-4,0-8.06,0-12.09,0V48.46h4.79V40h4.61l7.41,8.5h5.7ZM397.14,27.51a4,4,0,0,1,4.36,4.07c0,2-1.31,4.07-4.36,4.07h-7.3V27.51ZM419.73,23h-10V48.46h10c8.9,0,12.82-6.5,12.71-12.93S428.44,23,419.73,23Zm-5.23,4.54h5.23c5.52,0,7.84,4,8,7.92.11,4.14-2.18,8.35-8,8.35H414.5Zm49-.36c-1.92-3.92-6-5-10-5-4.68,0-9.84,2.18-9.84,7.41,0,5.7,4.79,7.08,10,7.7,3.38.36,5.88,1.34,5.88,3.74,0,2.76-2.83,3.81-5.85,3.81s-6-1.23-7.15-4l-4,2.07c1.89,4.65,5.88,6.25,11.08,6.25,5.67,0,10.68-2.43,10.68-8.1,0-6.06-4.94-7.44-10.24-8.1-3.05-.36-5.67-1-5.67-3.2,0-1.89,1.71-3.38,5.27-3.38,2.76,0,5.16,1.38,6,2.83Zm24,16.52H473.26V38H487V33.54H473.26V27.69h14.27V23h-19V48.46h19V43.74ZM512,48.46h5.23L505.79,23h-5.23l-11.4,25.42h5.19l2.18-4.79h13.29ZM507.9,39.2h-9.44l4.72-10.82Zm34.54,8.93-7.7-8.68c4.83-1,6.43-4.5,6.43-8,0-4.39-3.16-8.39-9.15-8.43-4,0-8.06,0-12.09,0V48.46h4.79V40h4.61l7.41,8.5h5.7ZM532,27.51a4,4,0,0,1,4.36,4.07c0,2-1.31,4.07-4.36,4.07h-7.3V27.51H532ZM564.08,42a9.35,9.35,0,0,1-6.39,2.58c-6.28,0-8.72-4.39-8.75-8.61s2.61-8.82,8.75-8.82a8.73,8.73,0,0,1,6.14,2.4l3.2-3.09a13.11,13.11,0,0,0-9.33-3.89c-9.19,0-13.51,6.75-13.47,13.4S548.25,49,557.69,49a13.4,13.4,0,0,0,9.66-3.78Zm28.57,6.54V23.08H587.9V33.79H575.41V23.08h-4.79V48.5h4.79V38.22H587.9V48.5Z" transform="translate(0)"/></g></g></g></g></g></svg>