<svg xmlns="http://www.w3.org/2000/svg" viewBox="0 0 581.44 289"><defs><style>.cls-1{fill:#68767a;}.cls-2{fill:#fff;}.cls-3{fill:#fc4799;}.cls-4{fill:none;stroke:#10cfbd;stroke-miterlimit:10;stroke-width:4px;}</style></defs><title>Asset 2</title><g id="Layer_2" data-name="Layer 2"><g id="page3"><polygon class="cls-1" points="47.59 142 68.44 163.15 47.88 184 4 184 4 142 47.59 142"/><circle class="cls-2" cx="45.97" cy="163" r="7.78"/><polygon class="cls-1" points="42 86 126.59 86 147.44 107.15 126.88 128 42 128 42 86"/><circle class="cls-2" cx="124.97" cy="107" r="7.78"/><polygon class="cls-1" points="128 142 212.59 142 233.44 163.15 212.88 184 128 184 128 142"/><circle class="cls-2" cx="210.97" cy="163" r="7.78"/><polygon class="cls-1" points="223 86 307.59 86 328.44 107.15 307.88 128 223 128 223 86"/><circle class="cls-2" cx="305.97" cy="107" r="7.78"/><polygon class="cls-3" points="298 142 382.59 142 403.44 163.15 382.88 184 298 184 298 142"/><circle class="cls-2" cx="380.97" cy="163" r="7.78"/><polygon class="cls-1" points="390 86 474.59 86 495.44 107.15 474.88 128 390 128 390 86"/><circle class="cls-2" cx="472.97" cy="107" r="7.78"/><polygon class="cls-1" points="476 142 560.59 142 581.44 163.15 560.88 184 476 184 476 142"/><circle class="cls-2" cx="558.97" cy="163" r="7.78"/><line class="cls-4" x1="2" x2="2" y2="289"/></g></g></svg>