<svg xmlns="http://www.w3.org/2000/svg" viewBox="0 0 1685.15 374.93"><defs><style>.cls-1{fill:#222;}.cls-2{fill:#10cfbd;}</style></defs><title>Asset 2</title><g id="Layer_2" data-name="Layer 2"><g id="Layer_1-2" data-name="Layer 1"><path class="cls-1" d="M592.6.68c19.17,0,38.33-.14,57.5.05,12.56.13,22.73,9.61,23.59,21.43.92,12.6-6.91,23.27-19,25.56a48.59,48.59,0,0,1-9,.49q-47.75,0-95.5,0c-11.79,0-18.66,6.21-19.41,17.53-.83,12.39,4.81,19.48,16.82,21.07a46.11,46.11,0,0,0,6,.28c18.67,0,37.33,0,56,0,15.11,0,28.91,4.65,41.41,12.85,15.78,10.36,22.35,25.89,23.49,44.15a107.74,107.74,0,0,1-5.9,41.8c-5.06,14.86-14.78,25.7-29.72,30.13a134.23,134.23,0,0,1-34.77,5.88c-34.15.74-68.32.3-102.49.15a23.42,23.42,0,0,1-23.81-23.79c0-13.3,10.18-23.38,24-23.45,32.16-.17,64.33-.17,96.49-.24,16.21,0,25.6-13.1,20.55-28.58-2.51-7.67-10.33-12.69-20.17-12.72-20.33-.06-40.71.82-61-.22-25.5-1.31-53.36-14.92-59.64-43.72-3.72-17.08-3.21-34.18,2.47-50.82,6.9-20.24,22.24-31,42.24-35.77A82.38,82.38,0,0,1,540.61.71c17.33-.27,34.66-.09,52-.09Z"/><path class="cls-1" d="M840.85.68c19.16,0,38.32-.14,57.48.06,10.55.11,18,5.39,22.1,15.1a23.37,23.37,0,0,1-5.7,25.75c-4.94,4.79-11,6.58-17.78,6.57q-49-.09-98,0c-12.78,0-19.68,6.89-19.81,19.76-.12,11.51,7,18.76,19.24,18.9,20,.22,40-.15,60,.14a73.88,73.88,0,0,1,43.72,14.89c12.72,9.43,18.87,22.71,20.22,38.11,1.18,13.48.8,27-3,40.14-7.48,25.76-28.35,40.75-57.23,41.56-37.12,1-74.29.21-111.45,0-14-.06-24.43-10.54-24.29-23.88s10.71-23.39,24.73-23.4c31.82,0,63.64-.24,95.46.1,17.15.18,24.68-13.31,20.69-28.57-2.05-7.86-10.15-12.79-20-12.81-20.33,0-40.71,1-61-.25-28.72-1.79-53.76-16.84-59.39-43.28-4.32-20.3-3.78-40.51,6-59.45,7.81-15.1,21.28-23.08,37.23-27A84.45,84.45,0,0,1,788.87.73c17.32-.31,34.65-.11,52-.11Z"/><path class="cls-1" d="M1172,222.42c-11.82-.19-20.26-5.86-25.06-16.55q-11.66-26-22.67-52.27c-1.55-3.7-3.44-4.87-7.39-4.83q-30.24.31-60.49,0c-3.72,0-5.62,1.11-7.13,4.55-7.84,17.84-15.71,35.68-24,53.31-5.09,10.79-13.92,16.11-26.13,15.67-10.95-.4-18.6-5.74-23.4-15.24-4.39-8.67-3.28-17.34.63-26,9.73-21.56,19.26-43.22,28.87-64.83q21-47.26,42.05-94.52c5.77-13,15.54-20.13,29.92-20.33,6.82-.1,13.68-.2,20.46.37,12.12,1,21,7.34,26.09,18.33,10.68,23.14,21.1,46.4,31.55,69.65q20.68,46,41.23,92.15c6.06,13.59,3.09,27.78-8.14,35.23-4.64,3.08-10.44,4.4-15.72,6.52Zm-85.89-117.07c6.66,0,13.33.14,20,0,6.13-.17,8.08-3.47,5.26-8.92q-10.12-19.51-20.51-38.87c-3.12-5.8-6.54-5.85-9.6-.07q-10.28,19.42-20.19,39c-2.72,5.39-.58,8.68,5.58,8.83C1073.16,105.48,1079.65,105.36,1086.15,105.35Z"/><path class="cls-1" d="M1382.38,222.61c-17.94-1.06-36-1.1-53.8-3.38-39.29-5.06-63.19-28.7-73.74-65.92-7.25-25.6-7.1-51.85-1.15-77.73,8.75-38,38.48-64.82,78.35-70.87,12.13-1.84,24.53-2.23,36.83-2.53,17.32-.42,34.66-.28,52-.13,13.36.12,23.6,8.82,24.89,20.67,1.56,14.36-9.12,26.18-24.18,26.32-20.5.19-41,.71-61.49-.09-33.67-1.32-47.43,16.59-51.71,43.63a120.11,120.11,0,0,0,2.47,51c5.9,21.49,18.38,30.78,40.69,30.81,23.16,0,46.33,0,69.49.15,13.43.1,23.8,9.21,24.8,21.35,1.14,14-9.26,25.39-23.88,25.7-13.16.27-26.33.06-39.49.06Z"/><path class="cls-1" d="M71.06,222v-6.71q0-79.71,0-159.42c0-6.65,0-6.65-6.86-6.66-13.33,0-26.66.19-40-.09C9.72,48.86-.47,37.89,0,23.64c.37-10.61,8.77-20,19.81-22a42.43,42.43,0,0,1,7.46-.55C72.59,1,117.9,1,163.21,1.18a35.32,35.32,0,0,1,14.43,3,23,23,0,0,1,12.55,25.85,24.22,24.22,0,0,1-23.35,19.06c-13.82.31-27.65.29-41.48,0-4.55-.09-5.94,1.14-5.92,5.82.16,53.64,0,107.28.24,160.92,0,5.25-1.5,6.38-6.43,6.26C99.46,221.82,85.66,222,71.06,222Z"/><path class="cls-1" d="M1613.71,134.8c0,26.66-.12,53.31.11,80,0,4.93-1.5,6.15-6.21,6q-18-.48-36,0c-5,.14-6.48-1.08-6.46-6.31.21-53,.14-106,.12-158.94,0-8.24.69-7.38-7.63-7.4-13.16,0-26.33.27-39.48-.12-18.82-.56-30.09-20-20.87-35.74C1502.15,4,1509.74,0,1519.35,0h72c22.82,0,45.65-.06,68.47,0,11.44,0,20,6,23.91,16.38,5.69,15-6.09,31.25-23.19,31.62-13.66.29-27.32.25-41,0-4.49-.08-6,1-5.93,5.79C1613.83,80.82,1613.71,107.81,1613.71,134.8Z"/><path class="cls-1" d="M333.81.62c22.31,0,44.62-.08,66.93,0,14.62.07,25.3,10.46,25.13,24.1-.16,13.14-10.74,23.19-24.94,23.28-23.64.14-47.28,0-70.92,0-21.31,0-42.62.08-63.93,0-14.19-.08-24.93-10.09-25.15-23.1-.23-13.65,10.43-24.2,25-24.28C288.53.52,311.17.62,333.81.62Z"/><path class="cls-1" d="M333.91,174.42c22.47,0,45-.15,67.42,0,17.23.15,28.92,16.07,23.21,31.46-3.29,8.87-10,13.86-19.26,15.52a39.52,39.52,0,0,1-7,.44q-64.93,0-129.85,0c-8.56,0-16.21-2-21.93-8.77-6.16-7.28-7.54-15.6-3.68-24.25,4.18-9.37,11.91-14.32,22.12-14.42C288,174.27,310.94,174.42,333.91,174.42Z"/><path class="cls-1" d="M318.7,87.56c17.64,0,35.29-.05,52.93,0,10.19,0,18.1,4.38,22.71,13.57,7.76,15.49-3.68,33.2-21.78,33.72-10.15.29-20.31.07-30.46.07-25.3,0-50.6.08-75.9,0-14.43-.06-25.19-10.19-25.27-23.46s10.37-23.69,24.35-23.83C283.08,87.43,300.89,87.57,318.7,87.56Z"/><path class="cls-2" d="M1116.77,373.23c1.48-18.42,2.92-36.34,4.39-54.26.05-.64.33-1.78.57-1.8a103.59,103.59,0,0,1,13.21-.69c1.09,0,2.5,2.29,3,3.79,3.28,9,6.36,18.15,10,28.61,1.44-4.15,2.48-7.13,3.51-10.11,2.23-6.46,4.29-13,6.8-19.32a5.93,5.93,0,0,1,4.1-3.06c3.77-.44,7.63-.14,12.13-.14l4.63,57.06h-14l-2.24-30.91-.84-.12c-2.19,6-4.72,12-6.46,18.12-1.33,4.71-4.65,3.84-7.86,3.87s-6.12.69-7.38-3.78a115.27,115.27,0,0,0-7.33-18.59l-2.21,31.33Z"/><path class="cls-2" d="M656.87,342.43l-2.13,30.83h-14c.38-5.22.72-10.15,1.12-15.08,1-12.28,2.14-24.56,3-36.85.25-3.6,1.07-5.28,5.22-5.21,10.59.17,10.57,0,13.93,10,2.43,7.23,4.94,14.44,7.69,22.49a37.46,37.46,0,0,0,1.61-3.38c2.85-8.35,5.77-16.68,8.42-25.09.89-2.83,2.23-3.92,5.29-3.94,11.31-.1,11.32-.22,12.26,11q1.68,20.17,3.32,40.33c.14,1.79,0,3.59,0,5.77H689.12l-2.24-30.48-1-.23c-2.11,5.85-4.5,11.62-6.23,17.58-1.1,3.77-3.31,4.5-6.64,4.16s-7.3,1.4-8.79-4c-1.71-6.14-4.22-12.06-6.38-18.08Z"/><path class="cls-2" d="M155.1,342.61,153,373.26H138.88l4.75-57c4.6,0,8.89-.27,13.11.17,1.25.13,2.83,2.07,3.35,3.51,2.85,7.81,5.41,15.73,8.08,23.61.46,1.37,1,2.72,2,5.36,1.69-4.83,3-8.46,4.24-12.11q1.79-5.19,3.53-10.4c3.78-11.29,3.79-11.37,15.68-10a4.68,4.68,0,0,1,3.2,3.1c1.63,17.73,3,35.48,4.49,53.7h-14l-2.19-31-.84-.14c-2.21,6.16-4.78,12.22-6.52,18.5-1.25,4.54-4.36,3.75-7.4,3.71s-6.51,1.06-7.83-3.8c-1.67-6.16-4.25-12.08-6.44-18.1Z"/><path class="cls-2" d="M449.42,339.36V373.3H435.9v-57a109,109,0,0,1,12.15.16c1.39.16,2.94,1.95,3.8,3.37,5.91,9.79,11.67,19.69,18,30.46v-34a112,112,0,0,1,11.29.14,4.15,4.15,0,0,1,2.71,3c.17,17.8.12,35.59.12,54.2-4.43,0-8.53.24-12.58-.14-1.26-.12-2.69-1.74-3.47-3C461.9,360.47,456,350.44,449.42,339.36Z"/><path class="cls-2" d="M805.39,374.1V316.19c12,.69,24-2,35.4,3.25,10.62,4.93,15.57,15.89,14,30.41-1.23,11.52-8.58,20.65-20.08,22.51C825.3,373.89,815.58,373.57,805.39,374.1Zm13.81-45.33c0,10.17,0,20.23.08,30.28a3.29,3.29,0,0,0,1.88,2.36c6,2,14.88-1.68,17.43-7.5,3-6.75,3.14-13.69-1.25-19.9S826.53,327.82,819.2,328.77Z"/><path class="cls-2" d="M569.68,373.58c-4.26-.8-9,2.4-12-2.83-16,7-30.62,3.37-38.27-9.49-7.86-13.21-4.58-31.28,7.29-40.11,11.37-8.46,31.1-7.54,40.46,2.15l-5.44,8.52c-6.63-1.3-12.19-3.27-17.75-3.26-7.42,0-12.1,4.71-13.74,11.61s1.08,14.72,6.65,18.67c5.31,3.77,13.55,3.9,18.81,0,1.28-1,1.79-2.93,3.05-5.12l-8-.58c-.3-.41-.62-.66-.65-.94-1.16-10.93-1.16-10.93,9.8-10.93,10.37,0,10.38,0,10.37,10.64q0,9.75-.07,19.49A16.61,16.61,0,0,1,569.68,373.58Z"/><path class="cls-2" d="M1301.23,355V373.3h-13.64V317.06c9.81,0,19.56-1.19,28.88.29,12.71,2,16.78,20.39,7.34,30.12-.91.93-1.92,1.76-3.06,2.8l12.79,23.35c-5,0-9.13.26-13.22-.14a6.35,6.35,0,0,1-4-2.93,91.84,91.84,0,0,1-6.28-11.9C1308.37,354.63,1305.82,353.46,1301.23,355Zm0-26.45c0,2.68,0,5,0,7.24,0,6.66,1.89,8,8.4,6.07,3.62-1.07,5-3.65,4.92-7.14s-1.94-5.68-5.37-6.11A69.23,69.23,0,0,0,1301.19,328.57Z"/><path class="cls-2" d="M1537,350l12.94,23.53c-5.32,0-9.75.19-14.14-.13-1.09-.08-2.37-1.61-3-2.78a109.12,109.12,0,0,1-6.23-11.95c-1.68-4-4.25-5.17-8.89-3.73v18.3H1504a6.53,6.53,0,0,1-.48-1.74c0-17.16,0-34.31-.09-51.47,0-2.7.82-3.93,3.72-3.86,6.83.16,13.66-.07,20.48.18,7.52.28,13.63,3.09,16.41,10.74,2.93,8,.89,16-5.5,21.78C1538.14,349.23,1537.71,349.49,1537,350Zm-19.54-14.66c.54,2.77-1.84,7.29,4.44,7,5.83-.28,8.87-2.36,9-7,.12-4.83-2.58-6.65-8.74-7.06S1517.69,332,1517.45,335.37Z"/><path class="cls-2" d="M356.14,316.23c-4.6,8.18-8.31,15.44-12.67,22.29-2.5,3.94-2.26,6.94.07,10.8,4.61,7.64,8.7,15.61,13.45,24.26-5.35,0-9.79.23-14.18-.15-1.2-.1-2.58-1.82-3.3-3.12-3-5.39-5.5-11-8.67-16.3-1.18-1.95-3.7-3.07-5.61-4.58l-1.58,1.14V373.2h-14V316.54h13.7v21.21c4.08,1.63,6.13.32,7.68-2.91,2.24-4.64,5.07-9,7.17-13.71,1.75-3.93,4.23-5.5,8.49-5C349.46,316.52,352.29,316.23,356.14,316.23Z"/><path class="cls-2" d="M1259,373.39c-2.09.11-3.4.22-4.72.24-9.1.11-9,.05-12.23-8.54-.57-1.49-2.78-2.53-4.44-3.37-.93-.47-2.29-.09-3.45-.09-9.85,0-9.8,0-13.51,9.35a4.7,4.7,0,0,1-3,2.51,37.37,37.37,0,0,1-7,.13c-1.47,0-2.94-.15-5.09-.26,1.92-5.72,3.7-11,5.49-16.31,4.09-12.13,8.27-24.23,12.24-36.39,1-3.07,2.25-4.66,5.88-4.5,13,.6,9.46-2.36,13.88,10,4.94,13.77,9.46,27.68,14.15,41.54C1257.75,369.35,1258.24,371.09,1259,373.39Zm-26.2-41.29-.86,0-5,17.94h10.72Z"/><path class="cls-2" d="M227.52,373.63c6.5-19.06,12.63-37.14,18.94-55.16.35-1,2.1-2,3.29-2.15,11.68-1.27,11.7-1.23,15.42,9.69,5.3,15.55,10.56,31.11,16.15,47.59-4.57,0-8.5.29-12.34-.17-1.2-.14-2.66-2.12-3.15-3.55-2.8-8.23-2.71-8.26-11.42-8.26a12.17,12.17,0,0,1-2,0c-5.14-.87-8.27.84-8.77,6.43-.39,4.39-2.75,6.31-7.33,5.65C233.75,373.33,231.06,373.63,227.52,373.63Zm21.63-23.71h10.66l-5.39-19.39Z"/><path class="cls-2" d="M982.1,373.63h-5.56c-8.39,0-8.55.08-10.91-8-.93-3.2-2.54-4.4-5.69-4a18.89,18.89,0,0,1-2.49,0c-10.09,0-10,0-13.66,9.24a4.92,4.92,0,0,1-3.38,2.63c-3.61.35-7.27.12-11.31.12a23.68,23.68,0,0,1,.56-3.13c5.65-16.69,11.44-33.34,16.92-50.09,1.1-3.35,2.74-4.27,6.08-4.23,10.13.1,10.2-.06,13.42,9.29,5.09,14.78,10.08,29.6,15.09,44.41C981.48,370.78,981.64,371.75,982.1,373.63ZM960.82,350l-5.32-19.38L950.13,350Z"/><path class="cls-2" d="M1470.63,316.71v11.65c-5.4,0-10.65.13-15.9,0-3.7-.12-6.08,0-6.16,5.07-.09,5.35,2.48,5.64,6.38,5.32,1.49-.12,3,0,4.49,0,6.25,0,9.25,4.68,6.58,10.61-.38.86-2,1.53-3.14,1.6a92.67,92.67,0,0,1-10.48.05c-4.43-.24-3.56,2.85-3.62,5.39s-.51,5.45,3.78,5.3c6.27-.21,12.55-.05,19.06-.05v11.73h-36.39v-56.6Z"/><path class="cls-2" d="M767.47,351h-16.2a11.52,11.52,0,0,0-.67,2.19c-.54,8.43-.53,8.43,8,8.43,3.49,0,7,.2,10.48-.05s4.84,1.09,4.51,4.57c-.22,2.27,0,4.58,0,7.19H737a18.91,18.91,0,0,1-.46-2.89q0-25,0-49.92c0-2.29,0-4.3,3.25-4.27,10.63.1,21.26,0,32.27,0v12.18h-21.2v10h16.65Z"/><path class="cls-2" d="M1046.19,366.2l7.07-10.18c1.81,1.06,3.24,2.25,4.89,2.8,3.26,1.09,6.61,2.32,10,2.5,1.55.08,3.91-1.89,4.57-3.48.39-.93-1.49-3.56-2.95-4.38-4.77-2.69-10-4.53-14.69-7.37-6.87-4.17-9.49-10.82-6.83-18a20.58,20.58,0,0,1,6.63-9c8.58-6.36,23.63-4.68,31.1,3.13l-5.39,10.25c-4-1.44-7.64-3.13-11.44-4-2.92-.65-6.77-.38-7.14,3.37-.16,1.67,2.61,4.22,4.62,5.38,4,2.32,8.56,3.69,12.62,5.93,5.77,3.19,8.37,8.3,7.87,15a16.12,16.12,0,0,1-9.58,14.14C1067.45,377.29,1055.48,375.08,1046.19,366.2Z"/><path class="cls-2" d="M1357.53,328.36V316.68h48.11v11.68c-3.66,0-7.29.29-10.86-.07-4.7-.47-6.38,1-6.22,6,.36,11.13.11,22.29.11,33.43v5.64h-14c0-7.15,0-14.08,0-21,0-6.65-.12-13.31,0-20,.08-3-1-4.17-4-4C1366.45,328.5,1362.15,328.36,1357.53,328.36Z"/><path class="cls-2" d="M386.62,316.5H400.3v56.77H386.62Z"/><path class="cls-2" d="M886.7,316.51h13.66v56.75H886.7Z"/></g></g></svg>