<svg xmlns="http://www.w3.org/2000/svg" viewBox="0 0 384 276"><defs><style>.cls-1{fill:#4f5c5e;}.cls-2{fill:none;stroke:#fff;stroke-miterlimit:10;stroke-width:2px;}.cls-3{fill:#222e33;}.cls-4{fill:#fff;}.cls-5{fill:#fc4799;}</style></defs><title>Asset 4</title><g id="Layer_2" data-name="Layer 2"><g id="page3"><rect class="cls-1" width="384" height="276" rx="12" ry="12"/><polyline class="cls-2" points="0 44.78 37.75 44.78 43.55 56 48.63 45 384 44.78"/><rect class="cls-3" x="45" y="140" width="59" height="4"/><rect class="cls-3" x="120" y="140" width="59" height="4"/><rect class="cls-3" x="196" y="140" width="59" height="4"/><rect class="cls-3" x="275" y="140" width="59" height="4"/><rect class="cls-3" x="45" y="234" width="59" height="4"/><rect class="cls-3" x="120" y="234" width="59" height="4"/><rect class="cls-3" x="196" y="234" width="59" height="4"/><rect class="cls-3" x="275" y="234" width="59" height="4"/><path class="cls-4" d="M28.13,29.64H26.61V23.76H24.67V22.5h5.39v1.26H28.13Z"/><path class="cls-4" d="M35.53,29.64,35,27.94h-2.6l-.52,1.7H30.26l2.52-7.17h1.85l2.53,7.17Zm-.88-3-.81-2.61q-.09-.3-.13-.48-.16.63-.92,3.09Z"/><path class="cls-4" d="M40.77,25.63H43.6v3.7a8.06,8.06,0,0,1-1.3.32,8.53,8.53,0,0,1-1.24.09,3.14,3.14,0,0,1-2.47-.95,4,4,0,0,1-.85-2.73,3.6,3.6,0,0,1,1-2.7,3.75,3.75,0,0,1,2.74-1,5.3,5.3,0,0,1,2.12.44l-.5,1.21a3.59,3.59,0,0,0-1.63-.39,2,2,0,0,0-1.57.66,2.56,2.56,0,0,0-.59,1.77,2.85,2.85,0,0,0,.48,1.77,1.65,1.65,0,0,0,1.38.61,4.87,4.87,0,0,0,1-.1V26.89H40.77Z"/><path class="cls-4" d="M48,25.63h2.83v3.7a8.06,8.06,0,0,1-1.3.32,8.53,8.53,0,0,1-1.24.09,3.14,3.14,0,0,1-2.47-.95A4,4,0,0,1,45,26.06a3.6,3.6,0,0,1,1-2.7,3.75,3.75,0,0,1,2.74-1,5.3,5.3,0,0,1,2.12.44l-.5,1.21a3.59,3.59,0,0,0-1.63-.39,2,2,0,0,0-1.57.66,2.56,2.56,0,0,0-.59,1.77A2.85,2.85,0,0,0,47,27.87a1.65,1.65,0,0,0,1.38.61,4.87,4.87,0,0,0,1-.1V26.89H48Z"/><path class="cls-4" d="M56.66,29.64H52.54V22.5h4.11v1.24h-2.6v1.57h2.42v1.24H54.06v1.84h2.6Z"/><path class="cls-4" d="M64.07,26a3.52,3.52,0,0,1-1,2.7,4.09,4.09,0,0,1-2.9.94h-2V22.5h2.24a3.77,3.77,0,0,1,2.71.92A3.39,3.39,0,0,1,64.07,26ZM62.5,26q0-2.3-2-2.3h-.81v4.65h.65Q62.5,28.39,62.5,26Z"/><path class="cls-4" d="M74.62,26.06a3.87,3.87,0,0,1-.88,2.72,3.81,3.81,0,0,1-5,0,3.89,3.89,0,0,1-.88-2.73,3.83,3.83,0,0,1,.88-2.72,3.29,3.29,0,0,1,2.53-.94,3.25,3.25,0,0,1,2.52.95A3.88,3.88,0,0,1,74.62,26.06Zm-5.21,0a3,3,0,0,0,.45,1.8,1.59,1.59,0,0,0,1.36.61q1.81,0,1.81-2.41t-1.8-2.41a1.6,1.6,0,0,0-1.36.61A3,3,0,0,0,69.41,26.06Z"/><path class="cls-4" d="M76.1,22.5h2.22a4.29,4.29,0,0,1,2.2.43,1.51,1.51,0,0,1,.69,1.38,1.73,1.73,0,0,1-.3,1,1.2,1.2,0,0,1-.8.49v0a1.57,1.57,0,0,1,1,.57,1.84,1.84,0,0,1,.3,1.1,1.82,1.82,0,0,1-.71,1.52,3.05,3.05,0,0,1-1.92.55H76.1Zm1.51,2.83h.88a1.61,1.61,0,0,0,.89-.19.71.71,0,0,0,.28-.63.63.63,0,0,0-.3-.59,1.94,1.94,0,0,0-.95-.18h-.8Zm0,1.2v1.86h1a1.47,1.47,0,0,0,.92-.24.88.88,0,0,0,.3-.73q0-.89-1.27-.89Z"/><path class="cls-4" d="M82.08,31.74a3.32,3.32,0,0,1-.89-.11V30.37a2.94,2.94,0,0,0,.71.1.8.8,0,0,0,.71-.31,1.72,1.72,0,0,0,.21-1V22.5h1.51v6.68a2.82,2.82,0,0,1-.57,1.9A2.12,2.12,0,0,1,82.08,31.74Z"/><path class="cls-4" d="M90.24,29.64H86.13V22.5h4.11v1.24h-2.6v1.57h2.42v1.24H87.65v1.84h2.6Z"/><path class="cls-4" d="M94.77,23.66a1.54,1.54,0,0,0-1.32.64A3,3,0,0,0,93,26.09q0,2.39,1.79,2.39a5.66,5.66,0,0,0,1.82-.38v1.27a5.06,5.06,0,0,1-2,.37,3,3,0,0,1-2.38-.95,4,4,0,0,1-.83-2.71,4.43,4.43,0,0,1,.41-2A2.93,2.93,0,0,1,93,22.85a3.46,3.46,0,0,1,1.78-.45,4.81,4.81,0,0,1,2.09.5l-.49,1.23a8.19,8.19,0,0,0-.81-.33A2.4,2.4,0,0,0,94.77,23.66Z"/><path class="cls-4" d="M100.86,29.64H99.35V23.76H97.41V22.5h5.39v1.26h-1.94Z"/><path class="cls-4" d="M108.11,27.66a1.85,1.85,0,0,1-.7,1.52,3,3,0,0,1-1.94.56,4.55,4.55,0,0,1-2-.43V27.9a8.34,8.34,0,0,0,1.22.45,3.62,3.62,0,0,0,.92.13,1.3,1.3,0,0,0,.76-.19.65.65,0,0,0,.27-.57.63.63,0,0,0-.12-.37,1.32,1.32,0,0,0-.34-.31,9,9,0,0,0-.93-.48,4.41,4.41,0,0,1-1-.59,2.21,2.21,0,0,1-.52-.66,1.88,1.88,0,0,1-.2-.88,1.84,1.84,0,0,1,.64-1.49A2.67,2.67,0,0,1,106,22.4a4.19,4.19,0,0,1,1.06.13,7.33,7.33,0,0,1,1.06.37l-.49,1.18a7.1,7.1,0,0,0-.94-.33,3.06,3.06,0,0,0-.73-.09,1,1,0,0,0-.66.2.66.66,0,0,0-.23.52.64.64,0,0,0,.09.35,1,1,0,0,0,.3.29,9.48,9.48,0,0,0,1,.5,3.83,3.83,0,0,1,1.37,1A1.87,1.87,0,0,1,108.11,27.66Z"/><polygon class="cls-4" points="51.83 93.19 75.74 103.09 93.05 93.19 93.05 117.11 75.74 127 51.83 117.11 51.83 93.19"/><polygon class="cls-4" points="51 89.89 74.91 99.79 93.05 89.07 72.44 80 51 89.89"/><polygon class="cls-4" points="128.82 93.19 152.74 103.09 170.05 93.19 170.05 117.11 152.74 127 128.82 117.11 128.82 93.19"/><polygon class="cls-4" points="128 89.89 151.91 99.79 170.05 89.07 149.44 80 128 89.89"/><polygon class="cls-5" points="204.82 91.19 228.74 101.09 246.05 91.19 246.05 115.11 228.74 125 204.82 115.11 204.82 91.19"/><polygon class="cls-5" points="204 87.89 227.91 97.79 246.05 87.07 225.44 78 204 87.89"/><polygon class="cls-4" points="283.82 91.19 307.74 101.09 325.05 91.19 325.05 115.11 307.74 125 283.82 115.11 283.82 91.19"/><polygon class="cls-4" points="283 87.89 306.91 97.79 325.05 87.07 304.44 78 283 87.89"/><polygon class="cls-4" points="283.82 187.19 307.74 197.09 325.05 187.19 325.05 211.1 307.74 221 283.82 211.1 283.82 187.19"/><polygon class="cls-4" points="283 183.9 306.91 193.79 325.05 183.07 304.44 174 283 183.9"/><polygon class="cls-4" points="205.82 187.19 229.74 197.09 247.05 187.19 247.05 211.1 229.74 221 205.82 211.1 205.82 187.19"/><polygon class="cls-4" points="205 183.9 228.91 193.79 247.05 183.07 226.44 174 205 183.9"/><polygon class="cls-4" points="129.82 187.19 153.74 197.09 171.05 187.19 171.05 211.1 153.74 221 129.82 211.1 129.82 187.19"/><polygon class="cls-4" points="129 183.9 152.91 193.79 171.05 183.07 150.44 174 129 183.9"/><polygon class="cls-4" points="53.83 187.19 77.74 197.09 95.05 187.19 95.05 211.1 77.74 221 53.83 211.1 53.83 187.19"/><polygon class="cls-4" points="53 183.9 76.91 193.79 95.05 183.07 74.44 174 53 183.9"/></g></g></svg>