<svg xmlns="http://www.w3.org/2000/svg" viewBox="0 0 384.42 276"><defs><style>.cls-1{fill:#4f5c5e;}.cls-2{fill:#f2f2f2;}.cls-3{fill:#fc4799;}.cls-4{fill:#fff;}</style></defs><title>Asset 6</title><g id="Layer_2" data-name="Layer 2"><g id="page3"><rect class="cls-1" x="0.42" width="384" height="276" rx="12" ry="12"/><polygon class="cls-2" points="0.42 61.99 384.42 61.99 384.42 217.27 0 217.27 0.42 61.99"/><polygon class="cls-3" points="188.42 125 188.42 155 213.42 140 188.42 125"/><path class="cls-4" d="M60.22,242.29a1.42,1.42,0,0,0,1.57,1.64c1,0,1.64-.48,1.64-1.21s-.54-.9-1.64-1.16c-2.06-.52-3.19-1.13-3.19-2.63s1-2.69,3.43-2.69a3.24,3.24,0,0,1,2.61,1,2.5,2.5,0,0,1,.49,1.61H63.35a1.29,1.29,0,0,0-1.4-1.32c-.86,0-1.43.47-1.43,1.18s.64.95,1.88,1.26c1.5.36,3,.77,3,2.46s-1.29,2.82-3.69,2.82c-3.32,0-3.35-2.13-3.36-3Z"/><path class="cls-4" d="M68.43,239v3.61c0,.53,0,1.33.95,1.33,1.14,0,1.14-.85,1.14-1.88V239h1.82v4c0,1.31,0,1.46,0,1.62s0,.28,0,.44H70.7l-.06-.8a2,2,0,0,1-1.79,1,2.31,2.31,0,0,1-1.82-.82,2.79,2.79,0,0,1-.4-1.63V239Z"/><path class="cls-4" d="M74,236.42h1.78v3.32a2,2,0,0,1,1.71-.82c1.47,0,2.64,1.16,2.64,3.2,0,2.27-1.32,3.06-2.53,3.06a2,2,0,0,1-1.82-1c0,.19,0,.48-.06.85H74Zm3,3.69c-1.31,0-1.31,1.49-1.31,1.87,0,1.38.59,2,1.39,2,1.22,0,1.22-1.52,1.22-1.84C78.28,241.71,78.26,240.11,77,240.11Z"/><path class="cls-4" d="M84.92,245a5.5,5.5,0,0,1-1.38.19c-1.79,0-1.79-1.13-1.79-1.63v-3.32H80.59V239h1.16v-1.19l1.76-.65V239H85v1.17H83.51V243c0,.55,0,.9.8.9a4.57,4.57,0,0,0,.6,0Z"/><path class="cls-4" d="M86,236.41h1.89V238H86ZM86,239H87.8v6.07H86Z"/><path class="cls-4" d="M92.92,245a5.5,5.5,0,0,1-1.38.19c-1.79,0-1.79-1.13-1.79-1.63v-3.32H88.59V239h1.16v-1.19l1.76-.65V239H93v1.17H91.52V243c0,.55,0,.9.8.9a4.57,4.57,0,0,0,.6,0Z"/><path class="cls-4" d="M94,236.39H95.8v8.67H94Z"/><path class="cls-4" d="M98.79,242.49c0,.4,0,1.62,1.24,1.62a1,1,0,0,0,1.05-.84h1.62a2,2,0,0,1-.58,1.32,2.94,2.94,0,0,1-2.12.71,3,3,0,0,1-2.13-.75,3.93,3.93,0,0,1,.48-5.23,3,3,0,0,1,1.7-.5,2.6,2.6,0,0,1,2.45,1.46,4.49,4.49,0,0,1,.36,2.22Zm2.25-1.12c0-.28,0-1.35-1.06-1.35-.78,0-1.1.65-1.14,1.35Z"/><path class="cls-4" d="M110.93,245a5.5,5.5,0,0,1-1.38.19c-1.79,0-1.79-1.13-1.79-1.63v-3.32H106.6V239h1.16v-1.19l1.76-.65V239H111v1.17h-1.44V243c0,.55,0,.9.8.9a4.57,4.57,0,0,0,.6,0Z"/><path class="cls-4" d="M114.65,238.86a2.93,2.93,0,0,1,3.14,3.18,3,3,0,0,1-3.18,3.24,2.93,2.93,0,0,1-3.09-3.19A3,3,0,0,1,114.65,238.86Zm0,5.18c.78,0,1.31-.47,1.31-2.08,0-.8-.16-1.92-1.33-1.92s-1.31,1.5-1.31,2.05C113.35,243.46,113.8,244,114.68,244Z"/><path class="cls-4" d="M122,238.86a2.93,2.93,0,0,1,3.14,3.18,3,3,0,0,1-3.18,3.24,2.93,2.93,0,0,1-3.09-3.19A3,3,0,0,1,122,238.86Zm0,5.18c.78,0,1.31-.47,1.31-2.08,0-.8-.16-1.92-1.33-1.92s-1.31,1.5-1.31,2.05C120.68,243.46,121.13,244,122,244Z"/><path class="cls-4" d="M126.46,236.39h1.78v8.67h-1.78Z"/><path class="cls-4" d="M133.25,240.27h-.9V239h.9v-.83c0-1.07.36-1.93,2.09-1.93a7.74,7.74,0,0,1,1,.06v1.24a2.24,2.24,0,0,0-.37,0c-.91,0-.91.48-.91.79V239h1.13v1.26H135v4.8h-1.76Z"/><path class="cls-4" d="M139.74,238.86a2.93,2.93,0,0,1,3.14,3.18,3,3,0,0,1-3.18,3.24,2.93,2.93,0,0,1-3.09-3.19A3,3,0,0,1,139.74,238.86Zm0,5.18c.78,0,1.31-.47,1.31-2.08,0-.8-.16-1.92-1.33-1.92s-1.31,1.5-1.31,2.05C138.44,243.46,138.89,244,139.77,244Z"/><path class="cls-4" d="M144.22,240.5c0-.29,0-1.16-.08-1.51h1.67l0,1.16A1.83,1.83,0,0,1,147.9,239v1.6c-1.8-.17-1.91.75-1.91,1.51v3h-1.78Z"/><path class="cls-4" d="M155.86,245.06a4.88,4.88,0,0,1-.06-.83,2.34,2.34,0,0,1-3.32.49,1.88,1.88,0,0,1-.53-1.33,2,2,0,0,1,1.28-1.88,6.32,6.32,0,0,1,2.4-.34,2.36,2.36,0,0,0-.08-.8.82.82,0,0,0-.79-.5.81.81,0,0,0-.67.34.91.91,0,0,0-.13.54h-1.74a1.7,1.7,0,0,1,.68-1.43,3.17,3.17,0,0,1,1.83-.49,2.91,2.91,0,0,1,2.16.78,2.4,2.4,0,0,1,.42,1.49v2.43a7.35,7.35,0,0,0,.14,1.54Zm-2.18-1.87a.84.84,0,0,0,.86.86,1,1,0,0,0,.75-.35,2.22,2.22,0,0,0,.34-1.5C154.49,242.11,153.68,242.47,153.68,243.19Z"/><path class="cls-4" d="M162.9,236.41h1.79v7.68c0,.36,0,.76,0,1h-1.8l0-.88a1.63,1.63,0,0,1-.61.68,2.13,2.13,0,0,1-1.18.31c-1.62,0-2.58-1.12-2.58-3s1.09-3.25,2.67-3.25a1.94,1.94,0,0,1,1.7.83ZM161.55,244a1.28,1.28,0,0,0,1.13-.68,3.23,3.23,0,0,0,.29-1.43c0-1.19-.52-1.83-1.32-1.83-1.19,0-1.32,1.43-1.32,2C160.32,243.13,160.66,244,161.55,244Z"/><path class="cls-4" d="M167.43,239l1.37,4.11,1.39-4.11h1.71l-2.18,6.06h-2L165.53,239Z"/><path class="cls-4" d="M176.06,245.06a4.8,4.8,0,0,1-.06-.83,2.34,2.34,0,0,1-3.32.49,1.88,1.88,0,0,1-.53-1.33,2,2,0,0,1,1.28-1.88,6.32,6.32,0,0,1,2.4-.34,2.36,2.36,0,0,0-.08-.8.82.82,0,0,0-.79-.5.81.81,0,0,0-.67.34.91.91,0,0,0-.13.54h-1.74a1.7,1.7,0,0,1,.68-1.43,3.17,3.17,0,0,1,1.83-.49,2.91,2.91,0,0,1,2.16.78,2.4,2.4,0,0,1,.42,1.49v2.43a7.35,7.35,0,0,0,.14,1.54Zm-2.18-1.87a.84.84,0,0,0,.86.86,1,1,0,0,0,.75-.35,2.22,2.22,0,0,0,.34-1.5C174.69,242.11,173.87,242.47,173.87,243.19Z"/><path class="cls-4" d="M179.12,240.09s0-.68,0-1.1h1.7l0,.91a2.1,2.1,0,0,1,2-1.06,1.84,1.84,0,0,1,1.85,1.14,5,5,0,0,1,.17,1.81v3.27H183V241.3a1.45,1.45,0,0,0-.1-.66.93.93,0,0,0-.86-.52,1.1,1.1,0,0,0-.92.47,1.65,1.65,0,0,0-.22.92v3.55h-1.79Z"/><path class="cls-4" d="M189.63,241.15c0-.22-.1-1.12-.78-1.12-.84,0-.94,1.27-.94,1.93a3.32,3.32,0,0,0,.44,1.86.62.62,0,0,0,.48.2c.19,0,.74-.08.82-1.16h1.75a2.3,2.3,0,0,1-.78,1.79,2.49,2.49,0,0,1-1.73.56,2.56,2.56,0,0,1-2.06-.8,3.52,3.52,0,0,1-.77-2.39c0-2.76,2-3.14,2.83-3.14a2.27,2.27,0,0,1,2.47,2.27Z"/><path class="cls-4" d="M193.85,242.49c0,.4,0,1.62,1.24,1.62a1,1,0,0,0,1.05-.84h1.62a2,2,0,0,1-.58,1.32,2.94,2.94,0,0,1-2.12.71,3,3,0,0,1-2.13-.75,3.93,3.93,0,0,1,.48-5.23,3,3,0,0,1,1.7-.5,2.6,2.6,0,0,1,2.45,1.46,4.49,4.49,0,0,1,.36,2.22Zm2.25-1.12c0-.28,0-1.35-1.06-1.35-.78,0-1.1.65-1.14,1.35Z"/><path class="cls-4" d="M203.1,236.41h1.79v7.68c0,.36,0,.76,0,1h-1.8l0-.88a1.63,1.63,0,0,1-.61.68,2.13,2.13,0,0,1-1.18.31c-1.62,0-2.58-1.12-2.58-3s1.09-3.25,2.67-3.25a1.94,1.94,0,0,1,1.7.83ZM201.75,244a1.28,1.28,0,0,0,1.13-.68,3.23,3.23,0,0,0,.29-1.43c0-1.19-.52-1.83-1.32-1.83-1.19,0-1.32,1.43-1.32,2C200.52,243.13,200.86,244,201.75,244Z"/><path class="cls-4" d="M211,243.31a.88.88,0,0,0,1,.83c.64,0,.94-.36.94-.72s-.14-.49-.84-.68l-1.1-.3a1.75,1.75,0,0,1-1.54-1.68c0-1.18,1.08-1.89,2.65-1.89,1.25,0,2.25.58,2.3,1.79H212.8a.75.75,0,0,0-.86-.72c-.48,0-.84.23-.84.6s.3.49.83.64l1.09.3c1.1.3,1.62.86,1.62,1.69,0,1-.9,2.09-2.78,2.09a2.73,2.73,0,0,1-2.07-.74,1.73,1.73,0,0,1-.44-1.19Z"/><path class="cls-4" d="M217.5,239v3.61c0,.53,0,1.33.95,1.33,1.14,0,1.14-.85,1.14-1.88V239h1.82v4c0,1.31,0,1.46,0,1.62s0,.28,0,.44h-1.73l-.06-.8a2,2,0,0,1-1.79,1,2.31,2.31,0,0,1-1.82-.82,2.79,2.79,0,0,1-.4-1.63V239Z"/><path class="cls-4" d="M223,236.42h1.77v3.32a2,2,0,0,1,1.72-.82c1.47,0,2.64,1.16,2.64,3.2,0,2.27-1.32,3.06-2.53,3.06a2,2,0,0,1-1.82-1c0,.19,0,.48-.06.85H223Zm3,3.69c-1.31,0-1.31,1.49-1.31,1.87,0,1.38.59,2,1.39,2,1.22,0,1.22-1.52,1.22-1.84C227.35,241.71,227.33,240.11,226,240.11Z"/><path class="cls-4" d="M234,245a5.5,5.5,0,0,1-1.38.19c-1.79,0-1.79-1.13-1.79-1.63v-3.32h-1.16V239h1.16v-1.19l1.76-.65V239H234v1.17h-1.44V243c0,.55,0,.9.8.9a4.57,4.57,0,0,0,.6,0Z"/><path class="cls-4" d="M235,236.41h1.89V238H235Zm.06,2.59h1.78v6.07H235.1Z"/><path class="cls-4" d="M242,245a5.5,5.5,0,0,1-1.38.19c-1.79,0-1.79-1.13-1.79-1.63v-3.32h-1.16V239h1.16v-1.19l1.76-.65V239H242v1.17h-1.44V243c0,.55,0,.9.8.9a4.57,4.57,0,0,0,.6,0Z"/><path class="cls-4" d="M243.1,236.39h1.78v8.67H243.1Z"/><path class="cls-4" d="M247.86,242.49c0,.4,0,1.62,1.24,1.62a1,1,0,0,0,1.05-.84h1.62a2,2,0,0,1-.58,1.32,2.94,2.94,0,0,1-2.12.71,3,3,0,0,1-2.13-.75,3.93,3.93,0,0,1,.48-5.23,3,3,0,0,1,1.7-.5,2.6,2.6,0,0,1,2.45,1.46,4.49,4.49,0,0,1,.36,2.22Zm2.25-1.12c0-.28,0-1.35-1.06-1.35-.78,0-1.1.65-1.14,1.35Z"/><path class="cls-4" d="M260.45,236.41h1.79v7.68c0,.36,0,.76,0,1h-1.8l0-.88a1.63,1.63,0,0,1-.61.68,2.13,2.13,0,0,1-1.18.31c-1.62,0-2.58-1.12-2.58-3s1.09-3.25,2.67-3.25a1.94,1.94,0,0,1,1.7.83ZM259.1,244a1.28,1.28,0,0,0,1.13-.68,3.23,3.23,0,0,0,.29-1.43c0-1.19-.52-1.83-1.32-1.83-1.19,0-1.32,1.43-1.32,2C257.87,243.13,258.21,244,259.1,244Z"/><path class="cls-4" d="M265.2,242.49c0,.4,0,1.62,1.24,1.62a1,1,0,0,0,1.05-.84h1.62a2,2,0,0,1-.58,1.32,2.94,2.94,0,0,1-2.12.71,3,3,0,0,1-2.13-.75,3.93,3.93,0,0,1,.48-5.23,3,3,0,0,1,1.7-.5,2.6,2.6,0,0,1,2.45,1.46,4.49,4.49,0,0,1,.36,2.22Zm2.25-1.12c0-.28,0-1.35-1.06-1.35-.78,0-1.1.65-1.14,1.35Z"/><path class="cls-4" d="M271.65,239l1.37,4.11,1.39-4.11h1.71l-2.18,6.06h-2L269.75,239Z"/><path class="cls-4" d="M278.31,242.49c0,.4,0,1.62,1.24,1.62a1,1,0,0,0,1.05-.84h1.62a2,2,0,0,1-.58,1.32,2.94,2.94,0,0,1-2.12.71,3,3,0,0,1-2.13-.75,3.93,3.93,0,0,1,.48-5.23,3,3,0,0,1,1.7-.5,2.6,2.6,0,0,1,2.45,1.46,4.49,4.49,0,0,1,.36,2.22Zm2.25-1.12c0-.28,0-1.35-1.06-1.35-.78,0-1.1.65-1.14,1.35Z"/><path class="cls-4" d="M283.55,236.39h1.78v8.67h-1.78Z"/><path class="cls-4" d="M289.74,238.86a2.93,2.93,0,0,1,3.14,3.18,3,3,0,0,1-3.18,3.24,2.93,2.93,0,0,1-3.09-3.19A3,3,0,0,1,289.74,238.86Zm0,5.18c.78,0,1.31-.47,1.31-2.08,0-.8-.16-1.92-1.33-1.92s-1.31,1.5-1.31,2.05C288.44,243.46,288.89,244,289.77,244Z"/><path class="cls-4" d="M295.89,239l0,.86a2,2,0,0,1,1.85-1c1.57,0,2.52,1.18,2.52,3s-.89,3.24-2.64,3.24a2,2,0,0,1-1.69-.78v3h-1.81V239Zm2.62,3c0-.72-.18-2-1.22-2-.58,0-1.39.43-1.39,2.06,0,.36,0,1.9,1.32,1.9C298,244,298.5,243.18,298.5,242Z"/><path class="cls-4" d="M301.59,240.15c0-.38,0-.76-.06-1.14h1.71l.06.78a2.09,2.09,0,0,1,1.87-.91,1.85,1.85,0,0,1,1.91,1.14,2,2,0,0,1,1.94-1.13,2,2,0,0,1,1.85,1,3.49,3.49,0,0,1,.3,1.79v3.42h-1.79V241.5c0-.65-.1-1.37-1-1.37s-1.09,1-1.09,1.9v3h-1.79v-3.6c0-.47,0-1.33-1-1.33s-1.12,1-1.12,1.37v3.56h-1.79Z"/><path class="cls-4" d="M314.31,242.49c0,.4,0,1.62,1.24,1.62a1,1,0,0,0,1.05-.84h1.62a2,2,0,0,1-.58,1.32,2.94,2.94,0,0,1-2.12.71,3,3,0,0,1-2.13-.75,3.93,3.93,0,0,1,.48-5.23,3,3,0,0,1,1.7-.5,2.6,2.6,0,0,1,2.45,1.46,4.49,4.49,0,0,1,.36,2.22Zm2.25-1.12c0-.28,0-1.35-1.06-1.35-.78,0-1.1.65-1.14,1.35Z"/><path class="cls-4" d="M319.58,240.09s0-.68,0-1.1h1.7l0,.91a2.1,2.1,0,0,1,2-1.06A1.84,1.84,0,0,1,325.1,240a5,5,0,0,1,.17,1.81v3.27h-1.81V241.3a1.45,1.45,0,0,0-.1-.66.93.93,0,0,0-.86-.52,1.1,1.1,0,0,0-.92.47,1.65,1.65,0,0,0-.22.92v3.55h-1.79Z"/><path class="cls-4" d="M330.45,245a5.5,5.5,0,0,1-1.38.19c-1.79,0-1.79-1.13-1.79-1.63v-3.32h-1.16V239h1.16v-1.19l1.76-.65V239h1.44v1.17H329V243c0,.55,0,.9.8.9a4.57,4.57,0,0,0,.6,0Z"/></g></g></svg>