<svg xmlns="http://www.w3.org/2000/svg" viewBox="0 0 927 639"><defs><style>.cls-1{fill:#68767a;}.cls-2{fill:#c9c9c9;}.cls-3{fill:#999;}.cls-4{fill:#dd1969;}</style></defs><title>Asset 1</title><g id="Layer_2" data-name="Layer 2"><g id="page4"><polygon class="cls-1" points="0 0 927 0 927 521 799 476 799 125 115 125 0 54 0 0"/><polygon class="cls-2" points="0 118 100 179 101 521 799 521 927 572 927 639 0 639 0 118"/><path class="cls-3" d="M248.6,262.6v20.28H220.21V384.61H194.69V282.88H166.3V262.6Z"/><path class="cls-3" d="M282.06,384.61H256.54v-122h47.15c17.41,0,28.56,11.15,28.56,31.94,0,15.55-6.08,27.21-22.65,29.91v.34c5.58.68,22.14,2,22.14,24,0,7.77.51,30.76,2.87,35.83h-25c-3.38-7.44-2.7-15.72-2.7-23.66,0-14.53,1.35-26.87-18.25-26.87h-6.59Zm0-69.29h11.32c10.14,0,13-10.14,13-17.91,0-11.66-4.9-16.05-13-16.05H282.06Z"/><path class="cls-3" d="M347.62,384.61v-122h25.52v122Z"/><path class="cls-3" d="M447,300.12c.17-11.32-1.69-21.29-15.21-21.29-15.88,0-15.88,21.46-15.88,45.12,0,38.19,3.72,45,18.25,45a40.1,40.1,0,0,0,12.67-2.37v-27H433V320.73h39.37v61.85c-6.93,1.35-24.33,4.06-34.47,4.06-42.92,0-47.82-17.74-47.82-64,0-30.76,1.52-62,43.26-62,25,0,40.56,14,39,39.54Z"/><path class="cls-3" d="M546.86,300.12c.17-11.32-1.69-21.29-15.21-21.29-15.88,0-15.88,21.46-15.88,45.12,0,38.19,3.72,45,18.25,45a40.1,40.1,0,0,0,12.67-2.37v-27H532.83V320.73H572.2v61.85c-6.93,1.35-24.33,4.06-34.47,4.06-42.92,0-47.82-17.74-47.82-64,0-30.76,1.52-62,43.26-62,25,0,40.56,14,39,39.54Z"/><path class="cls-3" d="M591,384.61v-122h66.58v18.76H616.47v30.08h37.85V330.2H616.47v35.66h42.42v18.76Z"/><path class="cls-4" d="M697.08,384.61H671.56v-122h47.15c17.41,0,28.56,11.15,28.56,31.94,0,15.55-6.08,27.21-22.64,29.91v.34c5.58.68,22.14,2,22.14,24,0,7.77.51,30.76,2.87,35.83h-25c-3.38-7.44-2.7-15.72-2.7-23.66,0-14.53,1.35-26.87-18.25-26.87h-6.59Zm0-69.29H708.4c10.14,0,13-10.14,13-17.91,0-11.66-4.9-16.05-13-16.05H697.08Z"/></g></g></svg>